Jessen-Mittel14-1.1.ufo
<glyph name="parenright" format="2">
	<advance width="263"/>
	<unicode hex="0029"/>
	<outline>
		<contour>
			<point x="28" y="-125" type="curve"/>
			<point x="69" y="-154" type="line"/>
			<point x="169" y="-40"/>
			<point x="233" y="106"/>
			<point x="233" y="252" type="curve"/>
			<point x="233" y="434"/>
			<point x="163" y="583"/>
			<point x="43" y="710" type="curve"/>
			<point x="20" y="691" type="line"/>
			<point x="122" y="560"/>
			<point x="196" y="408"/>
			<point x="193" y="252" type="curve"/>
			<point x="190" y="132"/>
			<point x="135" y="-1"/>
		</contour>
	</outline>
</glyph>
<glyph name="comma" format="2">
	<advance width="140"/>
	<unicode hex="002C"/>
	<outline>
		<contour>
			<point x="20" y="-99" type="curve"/>
			<point x="20" y="-99" type="line"/>
			<point x="46" y="-95" type="line"/>
			<point x="81" y="-22"/>
			<point x="109" y="60"/>
			<point x="120" y="127" type="curve"/>
			<point x="108" y="144"/>
			<point x="93" y="171"/>
			<point x="72" y="197" type="curve"/>
			<point x="40" y="178" type="line"/>
			<point x="81" y="63"/>
			<point x="46" y="-11"/>
		</contour>
	</outline>
</glyph>
<glyph name="hyphen" format="2">
	<advance width="333"/>
	<unicode hex="002D"/>
	<outline>
		<contour>
			<point x="23" y="225" type="line"/>
			<point x="307" y="278" type="line"/>
			<point x="308" y="320" type="line"/>
			<point x="24" y="264" type="line"/>
		</contour>
		<contour>
			<point x="20" y="143" type="line"/>
			<point x="312" y="195" type="line"/>
			<point x="313" y="235" type="line"/>
			<point x="21" y="180" type="line"/>
		</contour>
	</outline>
</glyph>
<glyph name="period" format="2">
	<advance width="195"/>
	<unicode hex="002E"/>
	<outline>
		<contour>
			<point x="98" y="-9" type="line"/>
			<point x="175" y="66" type="line"/>
			<point x="100" y="148" type="line"/>
			<point x="20" y="75" type="line"/>
		</contour>
	</outline>
</glyph>
<glyph name="zero" format="2">
	<advance width="484"/>
	<unicode hex="0030"/>
	<outline>
		<contour>
			<point x="232" y="-13" type="curve"/>
			<point x="350" y="69"/>
			<point x="464" y="163"/>
			<point x="464" y="312" type="curve" smooth="yes"/>
			<point x="464" y="450"/>
			<point x="372" y="550"/>
			<point x="232" y="600" type="curve"/>
			<point x="151" y="556"/>
			<point x="20" y="454"/>
			<point x="20" y="268" type="curve" smooth="yes"/>
			<point x="20" y="163"/>
			<point x="102" y="55"/>
		</contour>
		<contour>
			<point x="275" y="90" type="curve"/>
			<point x="151" y="117"/>
			<point x="80" y="218"/>
			<point x="80" y="328" type="curve" smooth="yes"/>
			<point x="80" y="404"/>
			<point x="149" y="482"/>
			<point x="202" y="502" type="curve"/>
			<point x="313" y="472"/>
			<point x="395" y="382"/>
			<point x="395" y="282" type="curve" smooth="yes"/>
			<point x="395" y="198"/>
			<point x="350" y="117"/>
		</contour>
	</outline>
</glyph>
<glyph name="one" format="2">
	<advance width="328"/>
	<unicode hex="0031"/>
	<outline>
		<contour>
			<point x="167" y="0" type="curve"/>
			<point x="167" y="0" type="line"/>
			<point x="283" y="0" type="line"/>
			<point x="271" y="194"/>
			<point x="268" y="393"/>
			<point x="288" y="598" type="curve"/>
			<point x="273" y="602" type="line"/>
			<point x="200" y="532"/>
			<point x="118" y="494"/>
			<point x="0" y="484" type="curve"/>
			<point x="4" y="438" type="line"/>
			<point x="68" y="437"/>
			<point x="122" y="456"/>
			<point x="178" y="484" type="curve"/>
			<point x="173" y="377"/>
			<point x="177" y="146"/>
		</contour>
	</outline>
</glyph>
<glyph name="two" format="2">
	<advance width="449"/>
	<unicode hex="0032"/>
	<outline>
		<contour>
			<point x="54" y="-4" type="line"/>
			<point x="151" y="-5"/>
			<point x="300" y="5"/>
			<point x="425" y="-3" type="curve"/>
			<point x="449" y="79" type="line"/>
			<point x="446" y="84" type="line"/>
			<point x="354" y="67"/>
			<point x="268" y="61"/>
			<point x="184" y="60" type="curve"/>
			<point x="255" y="188"/>
			<point x="391" y="362"/>
			<point x="411" y="414" type="curve"/>
			<point x="409" y="528"/>
			<point x="335" y="606"/>
			<point x="229" y="606" type="curve" smooth="yes"/>
			<point x="126" y="606"/>
			<point x="57" y="536"/>
			<point x="57" y="436" type="curve" smooth="yes"/>
			<point x="57" y="332"/>
			<point x="142" y="275"/>
			<point x="236" y="283" type="curve"/>
			<point x="171" y="191"/>
			<point x="100" y="81"/>
			<point x="30" y="14" type="curve"/>
		</contour>
		<contour>
			<point x="235" y="322" type="curve" smooth="yes"/>
			<point x="181" y="322"/>
			<point x="131" y="356"/>
			<point x="131" y="415" type="curve" smooth="yes"/>
			<point x="131" y="474"/>
			<point x="172" y="519"/>
			<point x="229" y="519" type="curve" smooth="yes"/>
			<point x="295" y="519"/>
			<point x="329" y="476"/>
			<point x="329" y="415" type="curve" smooth="yes"/>
			<point x="329" y="364"/>
			<point x="288" y="322"/>
		</contour>
	</outline>
</glyph>
<glyph name="three" format="2">
	<advance width="407"/>
	<unicode hex="0033"/>
	<outline>
		<contour>
			<point x="192" y="-11" type="curve"/>
			<point x="192" y="-11" type="line"/>
			<point x="285" y="-11"/>
			<point x="377" y="52"/>
			<point x="377" y="133" type="curve"/>
			<point x="377" y="218"/>
			<point x="300" y="266"/>
			<point x="225" y="285" type="curve"/>
			<point x="295" y="337"/>
			<point x="376" y="374"/>
			<point x="376" y="455" type="curve"/>
			<point x="376" y="545"/>
			<point x="297" y="602"/>
			<point x="197" y="602" type="curve"/>
			<point x="129" y="602"/>
			<point x="40" y="566"/>
			<point x="25" y="483" type="curve"/>
			<point x="52" y="478" type="line"/>
			<point x="70" y="512"/>
			<point x="120" y="535"/>
			<point x="164" y="535" type="curve"/>
			<point x="214" y="535"/>
			<point x="265" y="512"/>
			<point x="265" y="452" type="curve"/>
			<point x="265" y="382"/>
			<point x="211" y="349"/>
			<point x="117" y="294" type="curve"/>
			<point x="122" y="278" type="line"/>
			<point x="198" y="264"/>
			<point x="269" y="221"/>
			<point x="269" y="146" type="curve"/>
			<point x="269" y="101"/>
			<point x="226" y="49"/>
			<point x="166" y="49" type="curve"/>
			<point x="117" y="49"/>
			<point x="88" y="62"/>
			<point x="55" y="99" type="curve"/>
			<point x="15" y="91" type="line"/>
			<point x="53" y="29"/>
			<point x="104" y="-11"/>
		</contour>
	</outline>
</glyph>
<glyph name="four" format="2">
	<advance width="564"/>
	<unicode hex="0034"/>
	<outline>
		<contour>
			<point x="309" y="-31" type="curve"/>
			<point x="431" y="0" type="line"/>
			<point x="428" y="48"/>
			<point x="425" y="97"/>
			<point x="423" y="145" type="curve"/>
			<point x="467" y="142"/>
			<point x="507" y="136"/>
			<point x="539" y="134" type="curve"/>
			<point x="549" y="220" type="line"/>
			<point x="420" y="212" type="line"/>
			<point x="415" y="344"/>
			<point x="414" y="477"/>
			<point x="415" y="605" type="curve"/>
			<point x="360" y="598" type="line"/>
			<point x="5" y="181" type="line"/>
			<point x="28" y="171" type="line"/>
			<point x="116" y="171"/>
			<point x="229" y="174"/>
			<point x="313" y="168" type="curve"/>
			<point x="310" y="109"/>
			<point x="317" y="25"/>
		</contour>
		<contour>
			<point x="315" y="225" type="curve"/>
			<point x="117" y="237" type="line"/>
			<point x="306" y="478" type="line"/>
			<point x="313" y="398"/>
			<point x="321" y="320"/>
		</contour>
	</outline>
</glyph>
<glyph name="five" format="2">
	<advance width="394"/>
	<unicode hex="0035"/>
	<outline>
		<contour>
			<point x="178" y="-10" type="curve" smooth="yes"/>
			<point x="278" y="-10"/>
			<point x="362" y="70"/>
			<point x="362" y="180" type="curve" smooth="yes"/>
			<point x="362" y="305"/>
			<point x="253" y="370"/>
			<point x="111" y="349" type="curve"/>
			<point x="110" y="411"/>
			<point x="116" y="476"/>
			<point x="118" y="536" type="curve"/>
			<point x="344" y="527" type="line"/>
			<point x="403" y="589" type="line"/>
			<point x="404" y="595" type="line"/>
			<point x="304" y="589"/>
			<point x="124" y="582"/>
			<point x="25" y="586" type="curve"/>
			<point x="36" y="487"/>
			<point x="37" y="359"/>
			<point x="29" y="255" type="curve"/>
			<point x="66" y="252" type="line"/>
			<point x="162" y="305"/>
			<point x="267" y="263"/>
			<point x="267" y="166" type="curve" smooth="yes"/>
			<point x="267" y="91"/>
			<point x="221" y="41"/>
			<point x="154" y="41" type="curve" smooth="yes"/>
			<point x="128" y="41"/>
			<point x="100" y="54"/>
			<point x="76" y="67" type="curve"/>
			<point x="36" y="39" type="line"/>
			<point x="70" y="14"/>
			<point x="115" y="-10"/>
		</contour>
	</outline>
</glyph>
<glyph name="six" format="2">
	<advance width="485"/>
	<unicode hex="0036"/>
	<outline>
		<contour>
			<point x="229" y="-15" type="curve"/>
			<point x="229" y="-15" type="line"/>
			<point x="350" y="-15"/>
			<point x="455" y="71"/>
			<point x="455" y="200" type="curve"/>
			<point x="455" y="320"/>
			<point x="357" y="382"/>
			<point x="257" y="382" type="curve"/>
			<point x="225" y="382"/>
			<point x="175" y="371"/>
			<point x="144" y="349" type="curve"/>
			<point x="189" y="437"/>
			<point x="256" y="543"/>
			<point x="311" y="611" type="curve"/>
			<point x="310" y="613" type="line"/>
			<point x="228" y="617" type="line"/>
			<point x="154" y="472"/>
			<point x="35" y="303"/>
			<point x="35" y="171" type="curve"/>
			<point x="35" y="72"/>
			<point x="122" y="-15"/>
		</contour>
		<contour>
			<point x="224" y="68" type="curve"/>
			<point x="224" y="68" type="line"/>
			<point x="139" y="68"/>
			<point x="104" y="136"/>
			<point x="104" y="201" type="curve"/>
			<point x="104" y="271"/>
			<point x="148" y="338"/>
			<point x="228" y="338" type="curve"/>
			<point x="299" y="338"/>
			<point x="356" y="286"/>
			<point x="356" y="201" type="curve"/>
			<point x="356" y="112"/>
			<point x="288" y="68"/>
		</contour>
	</outline>
</glyph>
<glyph name="seven" format="2">
	<advance width="442"/>
	<unicode hex="0037"/>
	<outline>
		<contour>
			<point x="112" y="-9" type="curve"/>
			<point x="200" y="0" type="line"/>
			<point x="240" y="216"/>
			<point x="342" y="463"/>
			<point x="437" y="600" type="curve"/>
			<point x="433" y="606" type="line"/>
			<point x="357" y="590"/>
			<point x="182" y="582"/>
			<point x="60" y="590" type="curve"/>
			<point x="5" y="482" type="line"/>
			<point x="11" y="477" type="line"/>
			<point x="111" y="485"/>
			<point x="239" y="492"/>
			<point x="320" y="487" type="curve"/>
			<point x="251" y="346"/>
			<point x="157" y="166"/>
		</contour>
	</outline>
</glyph>
<glyph name="eight" format="2">
	<advance width="394"/>
	<unicode hex="0038"/>
	<outline>
		<contour>
			<point x="198" y="-10" type="curve" smooth="yes"/>
			<point x="291" y="-10"/>
			<point x="374" y="60"/>
			<point x="374" y="146" type="curve" smooth="yes"/>
			<point x="374" y="220"/>
			<point x="320" y="283"/>
			<point x="251" y="304" type="curve"/>
			<point x="322" y="325"/>
			<point x="373" y="387"/>
			<point x="373" y="456" type="curve" smooth="yes"/>
			<point x="373" y="525"/>
			<point x="308" y="611"/>
			<point x="206" y="611" type="curve" smooth="yes"/>
			<point x="102" y="611"/>
			<point x="25" y="549"/>
			<point x="25" y="450" type="curve" smooth="yes"/>
			<point x="25" y="382"/>
			<point x="76" y="324"/>
			<point x="148" y="304" type="curve"/>
			<point x="76" y="282"/>
			<point x="25" y="217"/>
			<point x="25" y="151" type="curve" smooth="yes"/>
			<point x="25" y="65"/>
			<point x="93" y="-10"/>
		</contour>
		<contour>
			<point x="179" y="66" type="curve" smooth="yes"/>
			<point x="124" y="66"/>
			<point x="78" y="109"/>
			<point x="78" y="164" type="curve" smooth="yes"/>
			<point x="78" y="219"/>
			<point x="128" y="265"/>
			<point x="183" y="265" type="curve" smooth="yes"/>
			<point x="238" y="265"/>
			<point x="290" y="219"/>
			<point x="290" y="164" type="curve" smooth="yes"/>
			<point x="290" y="101"/>
			<point x="235" y="66"/>
		</contour>
		<contour>
			<point x="214" y="347" type="curve" smooth="yes"/>
			<point x="159" y="347"/>
			<point x="110" y="395"/>
			<point x="110" y="450" type="curve" smooth="yes"/>
			<point x="110" y="514"/>
			<point x="163" y="552"/>
			<point x="217" y="552" type="curve" smooth="yes"/>
			<point x="282" y="552"/>
			<point x="321" y="500"/>
			<point x="321" y="445" type="curve" smooth="yes"/>
			<point x="321" y="390"/>
			<point x="269" y="347"/>
		</contour>
	</outline>
</glyph>
<glyph name="nine" format="2">
	<advance width="475"/>
	<unicode hex="0039"/>
	<outline>
		<contour>
			<point x="242" y="-24" type="line"/>
			<point x="316" y="121"/>
			<point x="445" y="286"/>
			<point x="445" y="418" type="curve" smooth="yes"/>
			<point x="445" y="517"/>
			<point x="358" y="604"/>
			<point x="251" y="604" type="curve" smooth="yes"/>
			<point x="130" y="604"/>
			<point x="25" y="518"/>
			<point x="25" y="389" type="curve" smooth="yes"/>
			<point x="25" y="269"/>
			<point x="123" y="207"/>
			<point x="223" y="207" type="curve" smooth="yes"/>
			<point x="255" y="207"/>
			<point x="305" y="218"/>
			<point x="336" y="240" type="curve"/>
			<point x="291" y="152"/>
			<point x="226" y="67"/>
			<point x="171" y="-1" type="curve"/>
			<point x="170" y="-4" type="line"/>
		</contour>
		<contour>
			<point x="252" y="251" type="curve" smooth="yes"/>
			<point x="181" y="251"/>
			<point x="124" y="303"/>
			<point x="124" y="388" type="curve" smooth="yes"/>
			<point x="124" y="477"/>
			<point x="192" y="521"/>
			<point x="256" y="521" type="curve" smooth="yes"/>
			<point x="341" y="521"/>
			<point x="376" y="453"/>
			<point x="376" y="388" type="curve" smooth="yes"/>
			<point x="376" y="318"/>
			<point x="332" y="251"/>
		</contour>
	</outline>
</glyph>
<glyph name="colon" format="2">
	<advance width="195"/>
	<unicode hex="003A"/>
	<outline>
		<contour>
			<point x="20" y="348" type="line"/>
			<point x="98" y="254" type="line"/>
			<point x="175" y="338" type="line"/>
			<point x="100" y="429" type="line"/>
		</contour>
		<contour>
			<point x="20" y="81" type="line"/>
			<point x="98" y="-9" type="line"/>
			<point x="175" y="71" type="line"/>
			<point x="100" y="159" type="line"/>
		</contour>
	</outline>
</glyph>
<glyph name="semicolon" format="2">
	<advance width="224"/>
	<unicode hex="003B"/>
	<outline>
		<contour>
			<point x="122" y="190" type="line"/>
			<point x="20" y="-71" type="line"/>
			<point x="52" y="-71" type="line"/>
			<point x="184" y="190" type="line"/>
		</contour>
		<contour>
			<point x="46" y="292" type="line"/>
			<point x="125" y="206" type="line"/>
			<point x="204" y="283" type="line"/>
			<point x="128" y="367" type="line"/>
		</contour>
	</outline>
</glyph>
<glyph name="A" format="2">
	<advance width="743"/>
	<unicode hex="0041"/>
	<outline>
		<contour>
			<point x="554" y="96" type="curve"/>
			<point x="602" y="-10" type="line"/>
			<point x="720" y="29" type="line"/>
			<point x="604" y="223"/>
			<point x="507" y="426"/>
			<point x="410" y="621" type="curve"/>
			<point x="494" y="613"/>
			<point x="575" y="599"/>
			<point x="680" y="579" type="curve"/>
			<point x="738" y="687" type="line"/>
			<point x="729" y="701" type="line"/>
			<point x="583" y="677"/>
			<point x="246" y="698"/>
			<point x="49" y="711" type="curve"/>
			<point x="14" y="647" type="line"/>
			<point x="23" y="633" type="line"/>
			<point x="73" y="664"/>
			<point x="232" y="631"/>
			<point x="325" y="627" type="curve"/>
			<point x="330" y="627" type="line"/>
			<point x="225" y="433"/>
			<point x="130" y="229"/>
			<point x="5" y="36" type="curve"/>
			<point x="79" y="-8" type="line"/>
			<point x="102" y="40"/>
			<point x="124" y="88"/>
			<point x="146" y="136" type="curve"/>
			<point x="282" y="133"/>
			<point x="417" y="119"/>
		</contour>
		<contour>
			<point x="346" y="550" type="curve"/>
			<point x="521" y="168" type="line"/>
			<point x="405" y="169"/>
			<point x="290" y="180"/>
			<point x="174" y="199" type="curve"/>
			<point x="227" y="316"/>
			<point x="280" y="433"/>
		</contour>
	</outline>
</glyph>
<glyph name="B" format="2">
	<advance width="574"/>
	<unicode hex="0042"/>
	<outline>
		<contour>
			<point x="55" y="0" type="line"/>
			<point x="171" y="11"/>
			<point x="278" y="-3"/>
			<point x="394" y="5" type="curve" smooth="yes"/>
			<point x="455" y="9"/>
			<point x="535" y="93"/>
			<point x="543" y="216" type="curve"/>
			<point x="476" y="269"/>
			<point x="409" y="311"/>
			<point x="365" y="360" type="curve"/>
			<point x="426" y="406"/>
			<point x="508" y="469"/>
			<point x="544" y="512" type="curve"/>
			<point x="506" y="644"/>
			<point x="420" y="710"/>
			<point x="330" y="710" type="curve" smooth="yes"/>
			<point x="263" y="710"/>
			<point x="143" y="690"/>
			<point x="41" y="693" type="curve"/>
			<point x="40" y="685" type="line"/>
			<point x="101" y="653"/>
			<point x="108" y="624"/>
			<point x="108" y="344" type="curve" smooth="yes"/>
			<point x="108" y="67"/>
			<point x="82" y="37"/>
			<point x="54" y="7" type="curve"/>
		</contour>
		<contour>
			<point x="203" y="59" type="curve"/>
			<point x="201" y="148"/>
			<point x="199" y="238"/>
			<point x="198" y="328" type="curve"/>
			<point x="339" y="354"/>
			<point x="427" y="274"/>
			<point x="427" y="188" type="curve" smooth="yes"/>
			<point x="427" y="53"/>
			<point x="293" y="14"/>
		</contour>
		<contour>
			<point x="198" y="375" type="curve"/>
			<point x="198" y="469"/>
			<point x="199" y="563"/>
			<point x="203" y="655" type="curve"/>
			<point x="304" y="677"/>
			<point x="427" y="634"/>
			<point x="427" y="524" type="curve" smooth="yes"/>
			<point x="427" y="419"/>
			<point x="326" y="361"/>
		</contour>
	</outline>
</glyph>
<glyph name="C" format="2">
	<advance width="741"/>
	<unicode hex="0043"/>
	<outline>
		<contour>
			<point x="397" y="-10" type="curve"/>
			<point x="397" y="-10" type="line"/>
			<point x="549" y="-10"/>
			<point x="650" y="90"/>
			<point x="691" y="152" type="curve"/>
			<point x="698" y="211" type="line"/>
			<point x="691" y="213" type="line"/>
			<point x="649" y="134"/>
			<point x="557" y="79"/>
			<point x="434" y="79" type="curve"/>
			<point x="314" y="79"/>
			<point x="134" y="153"/>
			<point x="134" y="387" type="curve"/>
			<point x="134" y="577"/>
			<point x="289" y="669"/>
			<point x="439" y="669" type="curve"/>
			<point x="544" y="669"/>
			<point x="635" y="627"/>
			<point x="693" y="549" type="curve"/>
			<point x="701" y="550" type="line"/>
			<point x="721" y="678" type="line"/>
			<point x="693" y="685"/>
			<point x="598" y="710"/>
			<point x="463" y="710" type="curve"/>
			<point x="203" y="710"/>
			<point x="25" y="592"/>
			<point x="25" y="352" type="curve"/>
			<point x="25" y="152"/>
			<point x="187" y="-10"/>
		</contour>
	</outline>
</glyph>
<glyph name="D" format="2">
	<advance width="740"/>
	<unicode hex="0044"/>
	<outline>
		<contour>
			<point x="287" y="-4" type="curve" smooth="yes"/>
			<point x="513" y="-8"/>
			<point x="715" y="110"/>
			<point x="715" y="354" type="curve" smooth="yes"/>
			<point x="715" y="579"/>
			<point x="489" y="701"/>
			<point x="275" y="701" type="curve" smooth="yes"/>
			<point x="53" y="700" type="line"/>
			<point x="53" y="687" type="line"/>
			<point x="94" y="634" type="line"/>
			<point x="99" y="441"/>
			<point x="95" y="248"/>
			<point x="82" y="55" type="curve"/>
			<point x="40" y="9" type="line"/>
			<point x="41" y="-1" type="line"/>
			<point x="95" y="-3"/>
			<point x="223" y="-3"/>
		</contour>
		<contour>
			<point x="239" y="40" type="line"/>
			<point x="224" y="42"/>
			<point x="209" y="43"/>
			<point x="193" y="46" type="curve"/>
			<point x="187" y="213"/>
			<point x="198" y="466"/>
			<point x="200" y="654" type="curve"/>
			<point x="215" y="656"/>
			<point x="230" y="657"/>
			<point x="245" y="657" type="curve"/>
		</contour>
		<contour>
			<point x="273" y="38" type="curve"/>
			<point x="291" y="657" type="line"/>
			<point x="492" y="646"/>
			<point x="605" y="509"/>
			<point x="605" y="354" type="curve" smooth="yes"/>
			<point x="605" y="184"/>
			<point x="503" y="33"/>
		</contour>
	</outline>
</glyph>
<glyph name="E" format="2">
	<advance width="681"/>
	<unicode hex="0045"/>
	<outline>
		<contour>
			<point x="370" y="-10" type="curve" smooth="yes"/>
			<point x="478" y="-10"/>
			<point x="586" y="38"/>
			<point x="625" y="57" type="curve"/>
			<point x="606" y="181" type="line"/>
			<point x="596" y="181" type="line"/>
			<point x="567" y="103"/>
			<point x="487" y="31"/>
			<point x="370" y="31" type="curve" smooth="yes"/>
			<point x="237" y="31"/>
			<point x="135" y="140"/>
			<point x="113" y="297" type="curve"/>
			<point x="418" y="295"/>
			<point x="548" y="287"/>
			<point x="578" y="267" type="curve"/>
			<point x="588" y="271" type="line"/>
			<point x="585" y="322"/>
			<point x="588" y="361"/>
			<point x="608" y="412" type="curve"/>
			<point x="601" y="420" type="line"/>
			<point x="551" y="394"/>
			<point x="438" y="392"/>
			<point x="110" y="392" type="curve"/>
			<point x="123" y="580"/>
			<point x="254" y="669"/>
			<point x="387" y="669" type="curve" smooth="yes"/>
			<point x="504" y="669"/>
			<point x="603" y="595"/>
			<point x="624" y="505" type="curve"/>
			<point x="633" y="506" type="line"/>
			<point x="656" y="620" type="line"/>
			<point x="586" y="669"/>
			<point x="520" y="710"/>
			<point x="407" y="710" type="curve" smooth="yes"/>
			<point x="197" y="710"/>
			<point x="25" y="570"/>
			<point x="25" y="350" type="curve" smooth="yes"/>
			<point x="25" y="130"/>
			<point x="150" y="-10"/>
		</contour>
	</outline>
</glyph>
<glyph name="F" format="2">
	<advance width="563"/>
	<unicode hex="0046"/>
	<outline>
		<contour>
			<point x="120" y="0" type="curve"/>
			<point x="120" y="0" type="line"/>
			<point x="239" y="0" type="line"/>
			<point x="235" y="53"/>
			<point x="226" y="214"/>
			<point x="221" y="324" type="curve"/>
			<point x="301" y="324"/>
			<point x="446" y="315"/>
			<point x="505" y="302" type="curve"/>
			<point x="505" y="393" type="line"/>
			<point x="427" y="388"/>
			<point x="288" y="394"/>
			<point x="218" y="398" type="curve"/>
			<point x="217" y="410"/>
			<point x="217" y="419"/>
			<point x="217" y="425" type="curve"/>
			<point x="217" y="549"/>
			<point x="237" y="603"/>
			<point x="293" y="654" type="curve"/>
			<point x="413" y="683"/>
			<point x="521" y="629"/>
			<point x="531" y="533" type="curve"/>
			<point x="540" y="530" type="line"/>
			<point x="583" y="599" type="line"/>
			<point x="557" y="646"/>
			<point x="459" y="711"/>
			<point x="404" y="711" type="curve"/>
			<point x="334" y="711"/>
			<point x="214" y="673"/>
			<point x="156" y="614" type="curve"/>
			<point x="133" y="569"/>
			<point x="125" y="492"/>
			<point x="122" y="403" type="curve"/>
			<point x="43" y="401" type="line"/>
			<point x="5" y="323" type="line"/>
			<point x="9" y="320" type="line"/>
			<point x="121" y="321" type="line"/>
			<point x="121" y="208"/>
			<point x="126" y="88"/>
		</contour>
	</outline>
</glyph>
<glyph name="G" format="2">
	<advance width="734"/>
	<unicode hex="0047"/>
	<outline>
		<contour>
			<point x="345" y="-10" type="curve"/>
			<point x="345" y="-10" type="line"/>
			<point x="455" y="-10"/>
			<point x="530" y="49"/>
			<point x="567" y="95" type="curve"/>
			<point x="678" y="47" type="line"/>
			<point x="688" y="49" type="line"/>
			<point x="685" y="100"/>
			<point x="685" y="153"/>
			<point x="686" y="204" type="curve"/>
			<point x="688" y="273"/>
			<point x="699" y="340"/>
			<point x="717" y="409" type="curve"/>
			<point x="719" y="415" type="line"/>
			<point x="540" y="422" type="line"/>
			<point x="539" y="416" type="line"/>
			<point x="567" y="381"/>
			<point x="584" y="348"/>
			<point x="602" y="313" type="curve"/>
			<point x="599" y="156"/>
			<point x="489" y="52"/>
			<point x="386" y="52" type="curve"/>
			<point x="242" y="52"/>
			<point x="146" y="204"/>
			<point x="146" y="364" type="curve"/>
			<point x="146" y="514"/>
			<point x="243" y="662"/>
			<point x="403" y="662" type="curve"/>
			<point x="493" y="662"/>
			<point x="587" y="621"/>
			<point x="687" y="502" type="curve"/>
			<point x="698" y="506" type="line"/>
			<point x="679" y="572"/>
			<point x="669" y="625"/>
			<point x="668" y="667" type="curve"/>
			<point x="596" y="688"/>
			<point x="526" y="710"/>
			<point x="449" y="710" type="curve"/>
			<point x="209" y="710"/>
			<point x="85" y="569"/>
			<point x="25" y="379" type="curve"/>
			<point x="16" y="189"/>
			<point x="149" y="-10"/>
		</contour>
	</outline>
</glyph>
<glyph name="H" format="2">
	<advance width="669"/>
	<unicode hex="0048"/>
	<outline>
		<contour>
			<point x="45" y="0" type="curve"/>
			<point x="45" y="0" type="line"/>
			<point x="176" y="0" type="line"/>
			<point x="163" y="75"/>
			<point x="159" y="200"/>
			<point x="159" y="327" type="curve"/>
			<point x="279" y="335"/>
			<point x="399" y="343"/>
			<point x="518" y="328" type="curve"/>
			<point x="518" y="208"/>
			<point x="512" y="87"/>
			<point x="500" y="0" type="curve"/>
			<point x="629" y="0" type="line"/>
			<point x="610" y="177"/>
			<point x="608" y="507"/>
			<point x="623" y="700" type="curve"/>
			<point x="505" y="700" type="line"/>
			<point x="512" y="643"/>
			<point x="518" y="526"/>
			<point x="519" y="399" type="curve"/>
			<point x="399" y="390"/>
			<point x="279" y="388"/>
			<point x="160" y="391" type="curve"/>
			<point x="162" y="512"/>
			<point x="168" y="629"/>
			<point x="176" y="700" type="curve"/>
			<point x="40" y="700" type="line"/>
			<point x="63" y="465"/>
			<point x="72" y="223"/>
		</contour>
	</outline>
</glyph>
<glyph name="I" format="2">
	<advance width="259"/>
	<unicode hex="0049"/>
	<outline>
		<contour>
			<point x="40" y="3" type="curve"/>
			<point x="41" y="0" type="line"/>
			<point x="218" y="0" type="line"/>
			<point x="219" y="3" type="line"/>
			<point x="209" y="23"/>
			<point x="187" y="53"/>
			<point x="185" y="72" type="curve"/>
			<point x="172" y="199"/>
			<point x="169" y="465"/>
			<point x="185" y="613" type="curve"/>
			<point x="187" y="632"/>
			<point x="202" y="685"/>
			<point x="206" y="697" type="curve"/>
			<point x="205" y="700" type="line"/>
			<point x="53" y="700" type="line"/>
			<point x="52" y="697" type="line"/>
			<point x="71" y="609"/>
			<point x="79" y="550"/>
			<point x="79" y="493" type="curve"/>
			<point x="79" y="372"/>
			<point x="76" y="165"/>
			<point x="71" y="115" type="curve"/>
			<point x="68" y="87"/>
			<point x="52" y="39"/>
		</contour>
	</outline>
</glyph>
<glyph name="J" format="2">
	<advance width="455"/>
	<unicode hex="004A"/>
	<outline>
		<contour>
			<point x="151" y="-8" type="curve" smooth="yes"/>
			<point x="258" y="-8"/>
			<point x="359" y="69"/>
			<point x="402" y="153" type="curve"/>
			<point x="405" y="335"/>
			<point x="393" y="508"/>
			<point x="410" y="700" type="curve"/>
			<point x="290" y="700" type="line"/>
			<point x="302" y="599"/>
			<point x="299" y="382"/>
			<point x="299" y="266" type="curve" smooth="yes"/>
			<point x="299" y="130"/>
			<point x="251" y="52"/>
			<point x="161" y="52" type="curve" smooth="yes"/>
			<point x="102" y="52"/>
			<point x="66" y="72"/>
			<point x="35" y="107" type="curve"/>
			<point x="25" y="101" type="line"/>
			<point x="48" y="12" type="line"/>
			<point x="79" y="-2"/>
			<point x="125" y="-8"/>
		</contour>
	</outline>
</glyph>
<glyph name="K" format="2">
	<advance width="594"/>
	<unicode hex="004B"/>
	<outline>
		<contour>
			<point x="179" y="327" type="curve"/>
			<point x="502" y="-3" type="line"/>
			<point x="589" y="92" type="line"/>
			<point x="590" y="92"/>
			<point x="317" y="321"/>
			<point x="255" y="373" type="curve"/>
			<point x="345" y="474"/>
			<point x="435" y="573"/>
			<point x="540" y="657" type="curve"/>
			<point x="469" y="720" type="line"/>
			<point x="394" y="606"/>
			<point x="248" y="415"/>
			<point x="180" y="358" type="curve"/>
			<point x="183" y="459"/>
			<point x="192" y="572"/>
			<point x="207" y="700" type="curve"/>
			<point x="58" y="700" type="line"/>
			<point x="97" y="587"/>
			<point x="86" y="120"/>
			<point x="40" y="9" type="curve"/>
			<point x="41" y="5" type="line"/>
			<point x="200" y="5" type="line"/>
			<point x="183" y="95"/>
			<point x="177" y="201"/>
		</contour>
	</outline>
</glyph>
<glyph name="L" format="2">
	<advance width="475"/>
	<unicode hex="004C"/>
	<outline>
		<contour>
			<point x="377" y="-48" type="curve"/>
			<point x="393" y="-51" type="line"/>
			<point x="465" y="68" type="line"/>
			<point x="464" y="72" type="line"/>
			<point x="153" y="68" type="line"/>
			<point x="143" y="247"/>
			<point x="161" y="592"/>
			<point x="172" y="700" type="curve"/>
			<point x="41" y="700" type="line"/>
			<point x="63" y="462"/>
			<point x="64" y="233"/>
			<point x="40" y="0" type="curve"/>
			<point x="255" y="0" type="line" smooth="yes"/>
			<point x="306" y="0"/>
			<point x="382" y="11"/>
		</contour>
	</outline>
</glyph>
<glyph name="M" format="2">
	<advance width="869"/>
	<unicode hex="004D"/>
	<outline>
		<contour>
			<point x="21" y="0" type="line"/>
			<point x="129" y="0" type="line"/>
			<point x="130" y="12" type="line"/>
			<point x="122" y="134"/>
			<point x="122" y="323"/>
			<point x="143" y="501" type="curve"/>
			<point x="271" y="323"/>
			<point x="372" y="145"/>
			<point x="433" y="4" type="curve"/>
			<point x="439" y="4" type="line"/>
			<point x="677" y="470" type="line"/>
			<point x="686" y="325"/>
			<point x="717" y="142"/>
			<point x="729" y="0" type="curve"/>
			<point x="849" y="0" type="line"/>
			<point x="828" y="125"/>
			<point x="772" y="528"/>
			<point x="776" y="635" type="curve"/>
			<point x="795" y="677" type="line"/>
			<point x="732" y="691" type="line"/>
			<point x="707" y="635"/>
			<point x="564" y="353"/>
			<point x="472" y="186" type="curve"/>
			<point x="405" y="289"/>
			<point x="195" y="637"/>
			<point x="175" y="707" type="curve"/>
			<point x="77" y="710" type="line"/>
			<point x="74" y="689" type="line"/>
			<point x="116" y="629" type="line"/>
			<point x="94" y="486"/>
			<point x="64" y="140"/>
			<point x="20" y="10" type="curve"/>
		</contour>
	</outline>
</glyph>
<glyph name="N" format="2">
	<advance width="746"/>
	<unicode hex="004E"/>
	<outline>
		<contour>
			<point x="642" y="-10" type="curve"/>
			<point x="697" y="-10" type="line"/>
			<point x="678" y="192"/>
			<point x="677" y="618"/>
			<point x="706" y="690" type="curve"/>
			<point x="587" y="690" type="line"/>
			<point x="606" y="611"/>
			<point x="627" y="436"/>
			<point x="627" y="208" type="curve"/>
			<point x="489" y="361"/>
			<point x="322" y="537"/>
			<point x="194" y="700" type="curve"/>
			<point x="20" y="700" type="line"/>
			<point x="20" y="684" type="line"/>
			<point x="37" y="673"/>
			<point x="79" y="627"/>
			<point x="79" y="597" type="curve" smooth="yes"/>
			<point x="83" y="395"/>
			<point x="77" y="120"/>
			<point x="51" y="0" type="curve"/>
			<point x="160" y="0" type="line"/>
			<point x="131" y="117"/>
			<point x="143" y="381"/>
			<point x="137" y="581" type="curve"/>
			<point x="331" y="349"/>
			<point x="630" y="49"/>
		</contour>
	</outline>
</glyph>
<glyph name="O" format="2">
	<advance width="826"/>
	<unicode hex="004F"/>
	<outline>
		<contour>
			<point x="376" y="-10" type="curve" smooth="yes"/>
			<point x="489" y="-10"/>
			<point x="640" y="106"/>
			<point x="706" y="169" type="curve" smooth="yes"/>
			<point x="754" y="216"/>
			<point x="801" y="274"/>
			<point x="801" y="375" type="curve" smooth="yes"/>
			<point x="801" y="574"/>
			<point x="650" y="710"/>
			<point x="435" y="710" type="curve" smooth="yes"/>
			<point x="317" y="710"/>
			<point x="179" y="608"/>
			<point x="114" y="546" type="curve" smooth="yes"/>
			<point x="65" y="500"/>
			<point x="25" y="442"/>
			<point x="25" y="312" type="curve" smooth="yes"/>
			<point x="25" y="144"/>
			<point x="164" y="-10"/>
		</contour>
		<contour>
			<point x="423" y="73" type="curve" smooth="yes"/>
			<point x="263" y="73"/>
			<point x="134" y="190"/>
			<point x="134" y="350" type="curve" smooth="yes"/>
			<point x="134" y="510"/>
			<point x="245" y="638"/>
			<point x="405" y="638" type="curve" smooth="yes"/>
			<point x="563" y="638"/>
			<point x="694" y="510"/>
			<point x="694" y="350" type="curve" smooth="yes"/>
			<point x="694" y="200"/>
			<point x="573" y="73"/>
		</contour>
	</outline>
</glyph>
<glyph name="P" format="2">
	<advance width="529"/>
	<unicode hex="0050"/>
	<outline>
		<contour>
			<point x="64" y="3" type="curve"/>
			<point x="65" y="0" type="line"/>
			<point x="195" y="0" type="line"/>
			<point x="196" y="3" type="line"/>
			<point x="185" y="76"/>
			<point x="178" y="193"/>
			<point x="176" y="313" type="curve"/>
			<point x="343" y="310"/>
			<point x="449" y="345"/>
			<point x="508" y="456" type="curve"/>
			<point x="518" y="607"/>
			<point x="399" y="706"/>
			<point x="204" y="706" type="curve"/>
			<point x="153" y="706"/>
			<point x="84" y="705"/>
			<point x="25" y="703" type="curve"/>
			<point x="25" y="693" type="line"/>
			<point x="75" y="647" type="line"/>
			<point x="86" y="485"/>
			<point x="85" y="198"/>
		</contour>
		<contour>
			<point x="175" y="358" type="curve"/>
			<point x="175" y="358" type="line"/>
			<point x="174" y="474"/>
			<point x="177" y="587"/>
			<point x="184" y="660" type="curve"/>
			<point x="328" y="676"/>
			<point x="400" y="597"/>
			<point x="400" y="520" type="curve"/>
			<point x="400" y="398"/>
			<point x="294" y="342"/>
		</contour>
	</outline>
</glyph>
<glyph name="Q" format="2">
	<advance width="825"/>
	<unicode hex="0051"/>
	<outline>
		<contour>
			<point x="843" y="-54" type="line"/>
			<point x="845" y="-43" type="line"/>
			<point x="779" y="34"/>
			<point x="714" y="101"/>
			<point x="648" y="192" type="curve"/>
			<point x="698" y="256"/>
			<point x="738" y="335"/>
			<point x="738" y="430" type="curve"/>
			<point x="694" y="584"/>
			<point x="585" y="710"/>
			<point x="410" y="710" type="curve" smooth="yes"/>
			<point x="292" y="710"/>
			<point x="218" y="668"/>
			<point x="153" y="606" type="curve" smooth="yes"/>
			<point x="104" y="560"/>
			<point x="25" y="442"/>
			<point x="25" y="312" type="curve" smooth="yes"/>
			<point x="25" y="144"/>
			<point x="104" y="48"/>
			<point x="288" y="-10" type="curve"/>
			<point x="352" y="-10"/>
			<point x="431" y="15"/>
			<point x="478" y="28" type="curve"/>
			<point x="500" y="47"/>
			<point x="533" y="73"/>
			<point x="568" y="106" type="curve"/>
			<point x="624" y="59"/>
			<point x="682" y="9"/>
			<point x="738" y="-43" type="curve"/>
		</contour>
		<contour>
			<point x="372" y="90" type="curve" smooth="yes"/>
			<point x="212" y="90"/>
			<point x="93" y="203"/>
			<point x="93" y="363" type="curve" smooth="yes"/>
			<point x="93" y="523"/>
			<point x="206" y="620"/>
			<point x="366" y="620" type="curve" smooth="yes"/>
			<point x="524" y="620"/>
			<point x="640" y="510"/>
			<point x="640" y="350" type="curve" smooth="yes"/>
			<point x="640" y="200"/>
			<point x="529" y="90"/>
		</contour>
	</outline>
</glyph>
<glyph name="R" format="2">
	<advance width="558"/>
	<unicode hex="0052"/>
	<outline>
		<contour>
			<point x="535" y="-13" type="curve"/>
			<point x="535" y="-13" type="line"/>
			<point x="548" y="0" type="line"/>
			<point x="505" y="35"/>
			<point x="377" y="198"/>
			<point x="305" y="328" type="curve"/>
			<point x="367" y="354"/>
			<point x="489" y="376"/>
			<point x="520" y="478" type="curve"/>
			<point x="513" y="631"/>
			<point x="373" y="710"/>
			<point x="258" y="710" type="curve"/>
			<point x="200" y="710"/>
			<point x="93" y="698"/>
			<point x="25" y="696" type="curve"/>
			<point x="25" y="684" type="line"/>
			<point x="53" y="672"/>
			<point x="67" y="650"/>
			<point x="68" y="616" type="curve"/>
			<point x="73" y="498"/>
			<point x="85" y="281"/>
			<point x="78" y="95" type="curve"/>
			<point x="77" y="67"/>
			<point x="66" y="37"/>
			<point x="48" y="17" type="curve"/>
			<point x="48" y="3" type="line"/>
			<point x="178" y="0" type="line"/>
			<point x="179" y="3" type="line"/>
			<point x="179" y="46"/>
			<point x="176" y="180"/>
			<point x="174" y="325" type="curve"/>
			<point x="177" y="324"/>
			<point x="181" y="324"/>
			<point x="184" y="323" type="curve"/>
			<point x="398" y="49" type="line"/>
			<point x="440" y="23"/>
			<point x="485" y="3"/>
		</contour>
		<contour>
			<point x="173" y="373" type="curve"/>
			<point x="173" y="373" type="line"/>
			<point x="171" y="462"/>
			<point x="170" y="553"/>
			<point x="169" y="626" type="curve"/>
			<point x="182" y="653"/>
			<point x="217" y="665"/>
			<point x="252" y="665" type="curve"/>
			<point x="360" y="665"/>
			<point x="421" y="586"/>
			<point x="421" y="495" type="curve"/>
			<point x="421" y="383"/>
			<point x="285" y="326"/>
		</contour>
	</outline>
</glyph>
<glyph name="S" format="2">
	<advance width="496"/>
	<unicode hex="0053"/>
	<outline>
		<contour>
			<point x="48" y="-18" type="line"/>
			<point x="103" y="61" type="line"/>
			<point x="132" y="33"/>
			<point x="181" y="-10"/>
			<point x="254" y="-10" type="curve" smooth="yes"/>
			<point x="374" y="-10"/>
			<point x="463" y="79"/>
			<point x="463" y="202" type="curve" smooth="yes"/>
			<point x="463" y="322"/>
			<point x="381" y="384"/>
			<point x="293" y="409" type="curve" smooth="yes"/>
			<point x="208" y="433"/>
			<point x="125" y="458"/>
			<point x="125" y="550" type="curve" smooth="yes"/>
			<point x="125" y="615"/>
			<point x="176" y="661"/>
			<point x="252" y="661" type="curve" smooth="yes"/>
			<point x="344" y="661"/>
			<point x="410" y="599"/>
			<point x="420" y="474" type="curve"/>
			<point x="452" y="473" type="line"/>
			<point x="448" y="547"/>
			<point x="444" y="640"/>
			<point x="466" y="690" type="curve"/>
			<point x="449" y="699" type="line"/>
			<point x="438" y="680"/>
			<point x="422" y="658"/>
			<point x="408" y="632" type="curve"/>
			<point x="374" y="673"/>
			<point x="312" y="710"/>
			<point x="244" y="710" type="curve" smooth="yes"/>
			<point x="124" y="710"/>
			<point x="34" y="620"/>
			<point x="34" y="510" type="curve" smooth="yes"/>
			<point x="34" y="400"/>
			<point x="108" y="357"/>
			<point x="207" y="325" type="curve" smooth="yes"/>
			<point x="298" y="296"/>
			<point x="364" y="260"/>
			<point x="364" y="170" type="curve" smooth="yes"/>
			<point x="364" y="100"/>
			<point x="305" y="48"/>
			<point x="229" y="48" type="curve" smooth="yes"/>
			<point x="132" y="48"/>
			<point x="67" y="150"/>
			<point x="67" y="242" type="curve"/>
			<point x="31" y="237" type="line"/>
			<point x="35" y="185"/>
			<point x="56" y="90"/>
			<point x="30" y="-10" type="curve"/>
		</contour>
	</outline>
</glyph>
<glyph name="T" format="2">
	<advance width="634"/>
	<unicode hex="0054"/>
	<outline>
		<contour>
			<point x="243" y="3" type="curve"/>
			<point x="244" y="0" type="line"/>
			<point x="382" y="0" type="line"/>
			<point x="383" y="3" type="line"/>
			<point x="368" y="89"/>
			<point x="362" y="455"/>
			<point x="370" y="623" type="curve"/>
			<point x="444" y="620"/>
			<point x="520" y="612"/>
			<point x="598" y="601" type="curve"/>
			<point x="624" y="696" type="line"/>
			<point x="452" y="681"/>
			<point x="217" y="683"/>
			<point x="10" y="701" type="curve"/>
			<point x="14" y="606" type="line"/>
			<point x="95" y="618"/>
			<point x="176" y="625"/>
			<point x="258" y="625" type="curve"/>
			<point x="265" y="476"/>
			<point x="261" y="106"/>
		</contour>
	</outline>
</glyph>
<glyph name="U" format="2">
	<advance width="660"/>
	<unicode hex="0055"/>
	<outline>
		<contour>
			<point x="234" y="-11" type="curve"/>
			<point x="356" y="58"/>
			<point x="439" y="112"/>
			<point x="474" y="168" type="curve"/>
			<point x="475" y="110"/>
			<point x="475" y="54"/>
			<point x="476" y="0" type="curve"/>
			<point x="644" y="0" type="line"/>
			<point x="645" y="10" type="line"/>
			<point x="626" y="22"/>
			<point x="591" y="41"/>
			<point x="587" y="84" type="curve" smooth="yes"/>
			<point x="571" y="235"/>
			<point x="573" y="474"/>
			<point x="583" y="644" type="curve" smooth="yes"/>
			<point x="584" y="660"/>
			<point x="597" y="681"/>
			<point x="604" y="694" type="curve"/>
			<point x="604" y="700" type="line"/>
			<point x="445" y="700" type="line"/>
			<point x="445" y="694" type="line"/>
			<point x="454" y="680"/>
			<point x="472" y="643"/>
			<point x="472" y="619" type="curve" smooth="yes"/>
			<point x="472" y="514"/>
			<point x="472" y="407"/>
			<point x="473" y="304" type="curve"/>
			<point x="449" y="142"/>
			<point x="336" y="85"/>
			<point x="268" y="85" type="curve" smooth="yes"/>
			<point x="179" y="85"/>
			<point x="144" y="165"/>
			<point x="144" y="305" type="curve" smooth="yes"/>
			<point x="144" y="407"/>
			<point x="155" y="596"/>
			<point x="187" y="682" type="curve"/>
			<point x="186" y="690" type="line"/>
			<point x="25" y="678" type="line"/>
			<point x="26" y="670" type="line"/>
			<point x="43" y="639"/>
			<point x="56" y="618"/>
			<point x="59" y="579" type="curve" smooth="yes"/>
			<point x="67" y="484"/>
			<point x="66" y="278"/>
			<point x="49" y="142" type="curve"/>
			<point x="83" y="66"/>
			<point x="147" y="23"/>
		</contour>
	</outline>
</glyph>
<glyph name="V" format="2">
	<advance width="755"/>
	<unicode hex="0056"/>
	<outline>
		<contour>
			<point x="356" y="-10" type="curve"/>
			<point x="386" y="-10" type="line"/>
			<point x="450" y="169"/>
			<point x="550" y="433"/>
			<point x="669" y="619" type="curve" smooth="yes"/>
			<point x="699" y="666"/>
			<point x="713" y="672"/>
			<point x="750" y="689" type="curve"/>
			<point x="750" y="702" type="line"/>
			<point x="577" y="700" type="line"/>
			<point x="579" y="652"/>
			<point x="575" y="624"/>
			<point x="557" y="576" type="curve" smooth="yes"/>
			<point x="403" y="171" type="line"/>
			<point x="347" y="284"/>
			<point x="232" y="563"/>
			<point x="168" y="700" type="curve"/>
			<point x="5" y="700" type="line"/>
			<point x="5" y="691" type="line"/>
			<point x="46" y="647"/>
			<point x="77" y="612"/>
			<point x="120" y="526" type="curve" smooth="yes"/>
			<point x="195" y="374"/>
			<point x="310" y="148"/>
		</contour>
	</outline>
</glyph>
<glyph name="W" format="2">
	<advance width="971"/>
	<unicode hex="0057"/>
	<outline>
		<contour>
			<point x="697" y="-20" type="curve"/>
			<point x="727" y="-20" type="line"/>
			<point x="791" y="169"/>
			<point x="819" y="330"/>
			<point x="897" y="575" type="curve" smooth="yes"/>
			<point x="914" y="627"/>
			<point x="929" y="675"/>
			<point x="966" y="693" type="curve"/>
			<point x="966" y="701" type="line"/>
			<point x="843" y="699" type="line"/>
			<point x="845" y="651"/>
			<point x="831" y="598"/>
			<point x="819" y="543" type="curve" smooth="yes"/>
			<point x="734" y="168" type="line"/>
			<point x="682" y="286"/>
			<point x="570" y="493"/>
			<point x="536" y="658" type="curve"/>
			<point x="513" y="660" type="line"/>
			<point x="498" y="601" type="line" smooth="yes"/>
			<point x="467" y="497"/>
			<point x="376" y="341"/>
			<point x="291" y="185" type="curve"/>
			<point x="254" y="311"/>
			<point x="211" y="533"/>
			<point x="176" y="707" type="curve"/>
			<point x="5" y="697" type="line"/>
			<point x="5" y="688" type="line"/>
			<point x="32" y="656"/>
			<point x="69" y="614"/>
			<point x="93" y="526" type="curve" smooth="yes"/>
			<point x="141" y="348"/>
			<point x="181" y="147"/>
			<point x="208" y="-11" type="curve"/>
			<point x="238" y="-11" type="line"/>
			<point x="305" y="131"/>
			<point x="418" y="314"/>
			<point x="497" y="441" type="curve"/>
			<point x="585" y="259"/>
			<point x="639" y="143"/>
		</contour>
	</outline>
</glyph>
<glyph name="X" format="2">
	<advance width="633"/>
	<unicode hex="0058"/>
	<outline>
		<contour>
			<point x="5" y="3" type="curve"/>
			<point x="7" y="-4" type="line"/>
			<point x="149" y="3" type="line"/>
			<point x="184" y="89"/>
			<point x="254" y="207"/>
			<point x="300" y="275" type="curve"/>
			<point x="366" y="146"/>
			<point x="416" y="30"/>
			<point x="419" y="-2" type="curve"/>
			<point x="607" y="2" type="line"/>
			<point x="608" y="11" type="line"/>
			<point x="490" y="87"/>
			<point x="458" y="161"/>
			<point x="359" y="351" type="curve"/>
			<point x="453" y="485"/>
			<point x="545" y="615"/>
			<point x="627" y="694" type="curve"/>
			<point x="628" y="703" type="line"/>
			<point x="508" y="700" type="line"/>
			<point x="502" y="641"/>
			<point x="415" y="505"/>
			<point x="335" y="398" type="curve"/>
			<point x="297" y="476"/>
			<point x="234" y="609"/>
			<point x="205" y="705" type="curve"/>
			<point x="24" y="701" type="line"/>
			<point x="25" y="691" type="line"/>
			<point x="90" y="646"/>
			<point x="193" y="479"/>
			<point x="277" y="319" type="curve"/>
			<point x="140" y="134" type="line" smooth="yes"/>
			<point x="101" y="82"/>
			<point x="64" y="50"/>
		</contour>
	</outline>
</glyph>
<glyph name="Y" format="2">
	<advance width="603"/>
	<unicode hex="0059"/>
	<outline>
		<contour>
			<point x="260" y="0" type="line"/>
			<point x="386" y="0" type="line"/>
			<point x="387" y="3" type="line"/>
			<point x="384" y="49"/>
			<point x="376" y="165"/>
			<point x="374" y="319" type="curve"/>
			<point x="474" y="486"/>
			<point x="554" y="632"/>
			<point x="598" y="700" type="curve"/>
			<point x="598" y="703" type="line"/>
			<point x="498" y="700" type="line"/>
			<point x="482" y="645"/>
			<point x="436" y="515"/>
			<point x="351" y="369" type="curve"/>
			<point x="252" y="519"/>
			<point x="160" y="664"/>
			<point x="160" y="700" type="curve"/>
			<point x="6" y="696" type="line"/>
			<point x="5" y="692" type="line"/>
			<point x="71" y="597"/>
			<point x="231" y="378"/>
			<point x="271" y="317" type="curve"/>
			<point x="269" y="163"/>
			<point x="267" y="49"/>
			<point x="259" y="3" type="curve"/>
		</contour>
	</outline>
</glyph>
<glyph name="Z" format="2">
	<advance width="660"/>
	<unicode hex="005A"/>
	<outline>
		<contour>
			<point x="597" y="-51" type="curve"/>
			<point x="607" y="-51" type="line"/>
			<point x="650" y="124" type="line"/>
			<point x="643" y="127" type="line"/>
			<point x="574" y="100"/>
			<point x="293" y="101"/>
			<point x="166" y="105" type="curve"/>
			<point x="312" y="304"/>
			<point x="488" y="559"/>
			<point x="637" y="710" type="curve"/>
			<point x="626" y="720" type="line"/>
			<point x="521" y="702"/>
			<point x="263" y="695"/>
			<point x="70" y="716" type="curve"/>
			<point x="15" y="591" type="line"/>
			<point x="25" y="585" type="line"/>
			<point x="83" y="605"/>
			<point x="312" y="605"/>
			<point x="444" y="601" type="curve"/>
			<point x="10" y="-17" type="line"/>
			<point x="25" y="-29" type="line"/>
			<point x="112" y="8"/>
			<point x="332" y="7"/>
			<point x="509" y="0" type="curve" smooth="yes"/>
			<point x="551" y="-2"/>
			<point x="570" y="-19"/>
		</contour>
	</outline>
</glyph>
<glyph name="a" format="2">
	<advance width="427"/>
	<unicode hex="0061"/>
	<outline>
		<contour>
			<point x="333" y="-37" type="curve"/>
			<point x="412" y="42" type="line"/>
			<point x="379" y="73" type="line"/>
			<point x="374" y="162"/>
			<point x="380" y="287"/>
			<point x="392" y="378" type="curve"/>
			<point x="348" y="394"/>
			<point x="276" y="433"/>
			<point x="220" y="460" type="curve"/>
			<point x="161" y="425"/>
			<point x="108" y="405"/>
			<point x="40" y="378" type="curve"/>
			<point x="60" y="253"/>
			<point x="52" y="139"/>
			<point x="45" y="33" type="curve"/>
			<point x="89" y="21"/>
			<point x="133" y="2"/>
			<point x="174" y="-13" type="curve"/>
			<point x="206" y="13"/>
			<point x="240" y="36"/>
			<point x="271" y="41" type="curve"/>
			<point x="279" y="41"/>
			<point x="313" y="-10"/>
		</contour>
		<contour>
			<point x="295" y="61" type="curve"/>
			<point x="219" y="55"/>
			<point x="151" y="80"/>
			<point x="133" y="96" type="curve"/>
			<point x="133" y="378" type="line"/>
			<point x="182" y="374"/>
			<point x="259" y="355"/>
			<point x="304" y="333" type="curve"/>
			<point x="297" y="240"/>
			<point x="295" y="156"/>
		</contour>
	</outline>
</glyph>
<glyph name="b" format="2">
	<advance width="453"/>
	<unicode hex="0062"/>
	<outline>
		<contour>
			<point x="254" y="-10" type="curve"/>
			<point x="413" y="98" type="line"/>
			<point x="397" y="130"/>
			<point x="394" y="330"/>
			<point x="402" y="395" type="curve"/>
			<point x="360" y="412"/>
			<point x="302" y="444"/>
			<point x="274" y="472" type="curve"/>
			<point x="231" y="443"/>
			<point x="191" y="422"/>
			<point x="143" y="405" type="curve"/>
			<point x="149" y="530"/>
			<point x="159" y="646"/>
			<point x="180" y="712" type="curve"/>
			<point x="165" y="718" type="line"/>
			<point x="130" y="673"/>
			<point x="84" y="648"/>
			<point x="27" y="660" type="curve"/>
			<point x="25" y="643" type="line"/>
			<point x="82" y="626"/>
			<point x="56" y="156"/>
			<point x="46" y="69" type="curve"/>
			<point x="96" y="53"/>
			<point x="206" y="8"/>
		</contour>
		<contour>
			<point x="317" y="79" type="curve"/>
			<point x="246" y="87"/>
			<point x="180" y="101"/>
			<point x="139" y="123" type="curve"/>
			<point x="139" y="200"/>
			<point x="139" y="286"/>
			<point x="142" y="370" type="curve"/>
			<point x="205" y="374"/>
			<point x="262" y="358"/>
			<point x="316" y="339" type="curve"/>
			<point x="324" y="252"/>
			<point x="325" y="176"/>
		</contour>
	</outline>
</glyph>
<glyph name="c" format="2">
	<advance width="293"/>
	<unicode hex="0063"/>
	<outline>
		<contour>
			<point x="235" y="-32" type="curve"/>
			<point x="274" y="41" type="line"/>
			<point x="139" y="73" type="line"/>
			<point x="112" y="168"/>
			<point x="126" y="358"/>
			<point x="144" y="407" type="curve"/>
			<point x="193" y="394"/>
			<point x="230" y="372"/>
			<point x="282" y="352" type="curve"/>
			<point x="283" y="442" type="line"/>
			<point x="248" y="446"/>
			<point x="187" y="459"/>
			<point x="162" y="462" type="curve"/>
			<point x="133" y="440"/>
			<point x="91" y="414"/>
			<point x="40" y="390" type="curve"/>
			<point x="44" y="258"/>
			<point x="45" y="145"/>
			<point x="49" y="25" type="curve"/>
			<point x="118" y="10"/>
			<point x="204" y="-19"/>
		</contour>
	</outline>
</glyph>
<glyph name="d" format="2">
	<advance width="446"/>
	<unicode hex="0064"/>
	<outline>
		<contour>
			<point x="265" y="-10" type="curve"/>
			<point x="265" y="-10" type="line"/>
			<point x="323" y="40"/>
			<point x="360" y="67"/>
			<point x="400" y="109" type="curve"/>
			<point x="397" y="217"/>
			<point x="402" y="309"/>
			<point x="406" y="417" type="curve"/>
			<point x="287" y="490"/>
			<point x="211" y="558"/>
			<point x="114" y="640" type="curve"/>
			<point x="25" y="585" type="line"/>
			<point x="47" y="562"/>
			<point x="116" y="512"/>
			<point x="184" y="465" type="curve"/>
			<point x="142" y="442"/>
			<point x="97" y="415"/>
			<point x="49" y="394" type="curve"/>
			<point x="46" y="306"/>
			<point x="53" y="116"/>
			<point x="45" y="68" type="curve"/>
			<point x="95" y="45"/>
			<point x="217" y="6"/>
		</contour>
		<contour>
			<point x="307" y="81" type="curve"/>
			<point x="307" y="81" type="line"/>
			<point x="259" y="85"/>
			<point x="169" y="96"/>
			<point x="128" y="119" type="curve"/>
			<point x="122" y="176"/>
			<point x="125" y="317"/>
			<point x="143" y="393" type="curve"/>
			<point x="160" y="407"/>
			<point x="191" y="428"/>
			<point x="214" y="444" type="curve"/>
			<point x="259" y="413"/>
			<point x="300" y="385"/>
			<point x="321" y="370" type="curve"/>
			<point x="324" y="270"/>
			<point x="322" y="181"/>
		</contour>
	</outline>
</glyph>
<glyph name="e" format="2">
	<advance width="341"/>
	<unicode hex="0065"/>
	<outline>
		<contour>
			<point x="196" y="-21" type="line"/>
			<point x="279" y="43" type="line"/>
			<point x="276" y="51" type="line"/>
			<point x="161" y="84"/>
			<point x="121" y="92"/>
			<point x="115" y="173" type="curve"/>
			<point x="336" y="321" type="line"/>
			<point x="336" y="331" type="line"/>
			<point x="175" y="471" type="line"/>
			<point x="30" y="402" type="line"/>
			<point x="43" y="303"/>
			<point x="39" y="136"/>
			<point x="31" y="70" type="curve"/>
		</contour>
		<contour>
			<point x="114" y="221" type="line"/>
			<point x="114" y="317"/>
			<point x="117" y="377"/>
			<point x="125" y="402" type="curve"/>
			<point x="252" y="296" type="line"/>
		</contour>
	</outline>
</glyph>
<glyph name="f" format="2">
	<advance width="241"/>
	<unicode hex="0066"/>
	<outline>
		<contour>
			<point x="113" y="-10" type="curve"/>
			<point x="113" y="-10" type="line"/>
			<point x="172" y="74" type="line"/>
			<point x="119" y="97" type="line"/>
			<point x="119" y="137"/>
			<point x="120" y="243"/>
			<point x="122" y="350" type="curve"/>
			<point x="222" y="350" type="line"/>
			<point x="222" y="430" type="line"/>
			<point x="124" y="430" type="line"/>
			<point x="126" y="526"/>
			<point x="129" y="611"/>
			<point x="132" y="632" type="curve"/>
			<point x="161" y="622"/>
			<point x="196" y="610"/>
			<point x="221" y="597" type="curve"/>
			<point x="251" y="674" type="line"/>
			<point x="213" y="688"/>
			<point x="183" y="701"/>
			<point x="148" y="711" type="curve"/>
			<point x="32" y="636" type="line"/>
			<point x="41" y="627"/>
			<point x="46" y="540"/>
			<point x="48" y="435" type="curve"/>
			<point x="10" y="357" type="line"/>
			<point x="11" y="350" type="line"/>
			<point x="48" y="350" type="line"/>
			<point x="47" y="218"/>
			<point x="41" y="82"/>
			<point x="27" y="44" type="curve"/>
			<point x="62" y="27"/>
			<point x="85" y="12"/>
		</contour>
	</outline>
</glyph>
<glyph name="g" format="2">
	<advance width="429"/>
	<unicode hex="0067"/>
	<outline>
		<contour>
			<point x="229" y="-230" type="curve"/>
			<point x="291" y="-188"/>
			<point x="327" y="-157"/>
			<point x="387" y="-122" type="curve"/>
			<point x="376" y="-24"/>
			<point x="379" y="311"/>
			<point x="399" y="379" type="curve"/>
			<point x="326" y="413"/>
			<point x="261" y="434"/>
			<point x="168" y="465" type="curve"/>
			<point x="47" y="327" type="line"/>
			<point x="54" y="232"/>
			<point x="51" y="134"/>
			<point x="40" y="36" type="curve"/>
			<point x="81" y="25"/>
			<point x="130" y="2"/>
			<point x="159" y="-32" type="curve"/>
			<point x="48" y="-120" type="line"/>
			<point x="48" y="-124" type="line"/>
			<point x="107" y="-155"/>
			<point x="195" y="-205"/>
		</contour>
		<contour>
			<point x="275" y="-144" type="curve"/>
			<point x="228" y="-130"/>
			<point x="179" y="-100"/>
			<point x="142" y="-78" type="curve"/>
			<point x="170" y="-38" type="line"/>
			<point x="161" y="-32" type="line"/>
			<point x="206" y="2"/>
			<point x="250" y="29"/>
			<point x="296" y="36" type="curve"/>
			<point x="298" y="-23"/>
			<point x="310" y="-101"/>
		</contour>
		<contour>
			<point x="296" y="57" type="curve"/>
			<point x="243" y="42"/>
			<point x="170" y="49"/>
			<point x="128" y="82" type="curve"/>
			<point x="137" y="382" type="line"/>
			<point x="192" y="382"/>
			<point x="271" y="356"/>
			<point x="303" y="342" type="curve"/>
			<point x="301" y="247"/>
			<point x="296" y="152"/>
		</contour>
	</outline>
</glyph>
<glyph name="h" format="2">
	<advance width="432"/>
	<unicode hex="0068"/>
	<outline>
		<contour>
			<point x="271" y="-77" type="curve"/>
			<point x="281" y="-84" type="line"/>
			<point x="343" y="-12"/>
			<point x="353" y="24"/>
			<point x="392" y="75" type="curve"/>
			<point x="380" y="194"/>
			<point x="385" y="308"/>
			<point x="389" y="399" type="curve"/>
			<point x="343" y="430"/>
			<point x="291" y="450"/>
			<point x="254" y="476" type="curve"/>
			<point x="219" y="450"/>
			<point x="182" y="426"/>
			<point x="137" y="411" type="curve"/>
			<point x="142" y="519"/>
			<point x="149" y="633"/>
			<point x="157" y="713" type="curve"/>
			<point x="148" y="719" type="line"/>
			<point x="40" y="633" type="line"/>
			<point x="60" y="452"/>
			<point x="60" y="241"/>
			<point x="49" y="60" type="curve"/>
			<point x="130" y="-11" type="line"/>
			<point x="213" y="63" type="line"/>
			<point x="213" y="72" type="line"/>
			<point x="186" y="79"/>
			<point x="151" y="90"/>
			<point x="136" y="108" type="curve"/>
			<point x="131" y="141"/>
			<point x="132" y="260"/>
			<point x="137" y="391" type="curve"/>
			<point x="206" y="382"/>
			<point x="266" y="371"/>
			<point x="308" y="347" type="curve"/>
			<point x="306" y="179"/>
			<point x="327" y="95"/>
		</contour>
	</outline>
</glyph>
<glyph name="i" format="2">
	<advance width="208"/>
	<unicode hex="0069"/>
	<outline>
		<contour>
			<point x="114" y="-10" type="curve"/>
			<point x="114" y="-10" type="line"/>
			<point x="193" y="48" type="line"/>
			<point x="193" y="55" type="line"/>
			<point x="166" y="72"/>
			<point x="148" y="90"/>
			<point x="138" y="115" type="curve"/>
			<point x="137" y="240"/>
			<point x="144" y="349"/>
			<point x="161" y="419" type="curve"/>
			<point x="71" y="456" type="line"/>
			<point x="15" y="404" type="line"/>
			<point x="15" y="396" type="line"/>
			<point x="38" y="379"/>
			<point x="68" y="355"/>
			<point x="69" y="334" type="curve"/>
			<point x="72" y="264"/>
			<point x="58" y="151"/>
			<point x="48" y="70" type="curve"/>
			<point x="75" y="43"/>
			<point x="97" y="17"/>
		</contour>
		<contour>
			<point x="23" y="523" type="line"/>
			<point x="28" y="500" type="line"/>
			<point x="160" y="607" type="line"/>
			<point x="148" y="651" type="line"/>
			<point x="142" y="651" type="line"/>
		</contour>
	</outline>
</glyph>
<glyph name="j" format="2">
	<advance width="216"/>
	<unicode hex="006A"/>
	<outline>
		<contour>
			<point x="36" y="-105" type="line"/>
			<point x="89" y="-57"/>
			<point x="127" y="-29"/>
			<point x="156" y="21" type="curve"/>
			<point x="151" y="155"/>
			<point x="156" y="348"/>
			<point x="174" y="386" type="curve"/>
			<point x="141" y="413"/>
			<point x="111" y="441"/>
			<point x="78" y="470" type="curve"/>
			<point x="72" y="470" type="line"/>
			<point x="25" y="392" type="line"/>
			<point x="26" y="385" type="line"/>
			<point x="46" y="373"/>
			<point x="64" y="363"/>
			<point x="77" y="348" type="curve"/>
			<point x="87" y="133"/>
			<point x="81" y="45"/>
			<point x="25" y="-96" type="curve"/>
		</contour>
		<contour>
			<point x="15" y="485" type="line"/>
			<point x="167" y="573" type="line"/>
			<point x="176" y="627" type="line"/>
			<point x="169" y="628" type="line"/>
			<point x="15" y="507" type="line"/>
		</contour>
	</outline>
</glyph>
<glyph name="k" format="2">
	<advance width="423"/>
	<unicode hex="006B"/>
	<outline>
		<contour>
			<point x="287" y="62" type="curve"/>
			<point x="351" y="-27" type="line"/>
			<point x="413" y="17" type="line"/>
			<point x="386" y="60"/>
			<point x="383" y="66"/>
			<point x="377" y="103" type="curve"/>
			<point x="377" y="153"/>
			<point x="379" y="213"/>
			<point x="397" y="248" type="curve"/>
			<point x="374" y="261"/>
			<point x="326" y="293"/>
			<point x="318" y="296" type="curve"/>
			<point x="329" y="332"/>
			<point x="356" y="368"/>
			<point x="372" y="388" type="curve"/>
			<point x="335" y="432"/>
			<point x="300" y="446"/>
			<point x="252" y="479" type="curve"/>
			<point x="220" y="463"/>
			<point x="179" y="439"/>
			<point x="135" y="427" type="curve"/>
			<point x="139" y="539"/>
			<point x="146" y="643"/>
			<point x="153" y="697" type="curve"/>
			<point x="144" y="710" type="line"/>
			<point x="35" y="630" type="line"/>
			<point x="65" y="572"/>
			<point x="58" y="90"/>
			<point x="51" y="55" type="curve"/>
			<point x="79" y="35"/>
			<point x="105" y="17"/>
			<point x="123" y="-13" type="curve"/>
			<point x="190" y="57" type="line"/>
			<point x="189" y="60" type="line"/>
			<point x="153" y="72"/>
			<point x="145" y="90"/>
			<point x="136" y="106" type="curve"/>
			<point x="133" y="138"/>
			<point x="132" y="175"/>
			<point x="131" y="216" type="curve"/>
			<point x="221" y="247"/>
			<point x="277" y="231"/>
			<point x="302" y="212" type="curve"/>
			<point x="302" y="175"/>
			<point x="303" y="110"/>
		</contour>
		<contour>
			<point x="131" y="256" type="curve"/>
			<point x="131" y="256" type="line"/>
			<point x="131" y="280"/>
			<point x="131" y="303"/>
			<point x="132" y="327" type="curve"/>
			<point x="139" y="378"/>
			<point x="150" y="395"/>
			<point x="158" y="410" type="curve"/>
			<point x="274" y="381"/>
			<point x="322" y="367"/>
			<point x="290" y="300" type="curve"/>
			<point x="260" y="284"/>
			<point x="192" y="255"/>
		</contour>
	</outline>
</glyph>
<glyph name="l" format="2">
	<advance width="209"/>
	<unicode hex="006C"/>
	<outline>
		<contour>
			<point x="113" y="-18" type="curve"/>
			<point x="194" y="44" type="line"/>
			<point x="194" y="49" type="line"/>
			<point x="165" y="64"/>
			<point x="142" y="96"/>
			<point x="133" y="117" type="curve"/>
			<point x="133" y="237"/>
			<point x="137" y="565"/>
			<point x="157" y="700" type="curve"/>
			<point x="150" y="707" type="line"/>
			<point x="45" y="633" type="line"/>
			<point x="54" y="535"/>
			<point x="62" y="246"/>
			<point x="53" y="52" type="curve"/>
			<point x="73" y="38"/>
			<point x="93" y="10"/>
		</contour>
	</outline>
</glyph>
<glyph name="m" format="2">
	<advance width="637"/>
	<unicode hex="006D"/>
	<outline>
		<contour>
			<point x="259" y="49" type="curve"/>
			<point x="337" y="-19" type="line"/>
			<point x="405" y="60" type="line"/>
			<point x="386" y="77"/>
			<point x="371" y="89"/>
			<point x="362" y="104" type="curve"/>
			<point x="356" y="179"/>
			<point x="360" y="335"/>
			<point x="376" y="376" type="curve"/>
			<point x="377" y="378" type="line"/>
			<point x="427" y="371"/>
			<point x="469" y="358"/>
			<point x="513" y="339" type="curve"/>
			<point x="514" y="257"/>
			<point x="505" y="78"/>
			<point x="486" y="49" type="curve"/>
			<point x="554" y="-16" type="line"/>
			<point x="622" y="61" type="line"/>
			<point x="608" y="73"/>
			<point x="595" y="87"/>
			<point x="583" y="105" type="curve"/>
			<point x="579" y="196"/>
			<point x="592" y="367"/>
			<point x="597" y="404" type="curve"/>
			<point x="568" y="426"/>
			<point x="530" y="444"/>
			<point x="487" y="466" type="curve"/>
			<point x="452" y="439"/>
			<point x="421" y="413"/>
			<point x="380" y="398" type="curve"/>
			<point x="338" y="426"/>
			<point x="310" y="444"/>
			<point x="274" y="467" type="curve"/>
			<point x="250" y="443"/>
			<point x="213" y="420"/>
			<point x="181" y="402" type="curve"/>
			<point x="153" y="421"/>
			<point x="122" y="447"/>
			<point x="100" y="474" type="curve"/>
			<point x="97" y="474" type="line"/>
			<point x="70" y="443"/>
			<point x="47" y="412"/>
			<point x="15" y="373" type="curve"/>
			<point x="15" y="370" type="line"/>
			<point x="36" y="357"/>
			<point x="50" y="345"/>
			<point x="62" y="334" type="curve"/>
			<point x="65" y="259"/>
			<point x="61" y="109"/>
			<point x="52" y="34" type="curve"/>
			<point x="122" y="-16" type="line"/>
			<point x="186" y="47" type="line"/>
			<point x="169" y="61"/>
			<point x="154" y="75"/>
			<point x="144" y="90" type="curve"/>
			<point x="153" y="374" type="line"/>
			<point x="198" y="371"/>
			<point x="244" y="355"/>
			<point x="282" y="340" type="curve"/>
			<point x="282" y="231"/>
			<point x="286" y="72"/>
		</contour>
	</outline>
</glyph>
<glyph name="n" format="2">
	<advance width="476"/>
	<unicode hex="006E"/>
	<outline>
		<contour>
			<point x="383" y="-26" type="curve"/>
			<point x="460" y="56" type="line"/>
			<point x="461" y="59" type="line"/>
			<point x="440" y="69"/>
			<point x="423" y="80"/>
			<point x="402" y="90" type="curve"/>
			<point x="403" y="129"/>
			<point x="406" y="346"/>
			<point x="422" y="407" type="curve"/>
			<point x="376" y="433"/>
			<point x="322" y="464"/>
			<point x="279" y="488" type="curve"/>
			<point x="248" y="455"/>
			<point x="212" y="428"/>
			<point x="176" y="410" type="curve"/>
			<point x="93" y="476" type="line"/>
			<point x="68" y="455"/>
			<point x="51" y="438"/>
			<point x="15" y="418" type="curve"/>
			<point x="15" y="411" type="line"/>
			<point x="39" y="396"/>
			<point x="52" y="387"/>
			<point x="67" y="371" type="curve"/>
			<point x="74" y="247"/>
			<point x="74" y="105"/>
			<point x="46" y="60" type="curve"/>
			<point x="131" y="-16" type="line"/>
			<point x="196" y="77" type="line"/>
			<point x="196" y="79" type="line"/>
			<point x="174" y="91"/>
			<point x="156" y="99"/>
			<point x="143" y="107" type="curve"/>
			<point x="160" y="389" type="line"/>
			<point x="205" y="384"/>
			<point x="265" y="378"/>
			<point x="326" y="354" type="curve"/>
			<point x="327" y="266"/>
			<point x="322" y="98"/>
			<point x="308" y="44" type="curve"/>
			<point x="331" y="32"/>
			<point x="356" y="0"/>
		</contour>
	</outline>
</glyph>
<glyph name="p" format="2">
	<advance width="441"/>
	<unicode hex="0070"/>
	<outline>
		<contour>
			<point x="36" y="-157" type="curve"/>
			<point x="39" y="-160" type="line"/>
			<point x="84" y="-151"/>
			<point x="115" y="-144"/>
			<point x="150" y="-144" type="curve"/>
			<point x="149" y="-95"/>
			<point x="149" y="-45"/>
			<point x="149" y="6" type="curve"/>
			<point x="155" y="8"/>
			<point x="161" y="7"/>
			<point x="169" y="8" type="curve"/>
			<point x="223" y="-5"/>
			<point x="268" y="-18"/>
			<point x="296" y="-26" type="curve"/>
			<point x="330" y="-8"/>
			<point x="369" y="8"/>
			<point x="403" y="17" type="curve"/>
			<point x="398" y="125"/>
			<point x="389" y="258"/>
			<point x="411" y="388" type="curve"/>
			<point x="363" y="397"/>
			<point x="291" y="423"/>
			<point x="236" y="461" type="curve"/>
			<point x="212" y="432"/>
			<point x="198" y="409"/>
			<point x="173" y="388" type="curve"/>
			<point x="144" y="402"/>
			<point x="114" y="420"/>
			<point x="85" y="445" type="curve"/>
			<point x="5" y="387" type="line"/>
			<point x="5" y="373" type="line"/>
			<point x="26" y="370"/>
			<point x="45" y="362"/>
			<point x="68" y="347" type="curve"/>
			<point x="68" y="227"/>
			<point x="83" y="-78"/>
		</contour>
		<contour>
			<point x="314" y="44" type="curve"/>
			<point x="314" y="44" type="line"/>
			<point x="149" y="79" type="line"/>
			<point x="150" y="177"/>
			<point x="153" y="276"/>
			<point x="157" y="371" type="curve"/>
			<point x="210" y="366"/>
			<point x="276" y="349"/>
			<point x="323" y="332" type="curve"/>
			<point x="326" y="241"/>
			<point x="322" y="136"/>
		</contour>
	</outline>
</glyph>
<glyph name="q" format="2">
	<advance width="431"/>
	<unicode hex="0071"/>
	<outline>
		<contour>
			<point x="266" y="-163" type="line"/>
			<point x="289" y="-153"/>
			<point x="324" y="-144"/>
			<point x="370" y="-126" type="curve"/>
			<point x="358" y="30"/>
			<point x="375" y="278"/>
			<point x="401" y="400" type="curve"/>
			<point x="314" y="421"/>
			<point x="212" y="450"/>
			<point x="176" y="467" type="curve"/>
			<point x="30" y="377" type="line"/>
			<point x="36" y="289"/>
			<point x="46" y="155"/>
			<point x="37" y="38" type="curve"/>
			<point x="76" y="21"/>
			<point x="118" y="2"/>
			<point x="150" y="-22" type="curve"/>
			<point x="275" y="33" type="line"/>
			<point x="266" y="-43"/>
			<point x="267" y="-108"/>
			<point x="260" y="-158" type="curve"/>
		</contour>
		<contour>
			<point x="276" y="48" type="curve"/>
			<point x="222" y="51"/>
			<point x="166" y="66"/>
			<point x="112" y="86" type="curve"/>
			<point x="115" y="390" type="line"/>
			<point x="308" y="344" type="line"/>
			<point x="295" y="242"/>
			<point x="288" y="153"/>
		</contour>
	</outline>
</glyph>
<glyph name="s" format="2">
	<advance width="385"/>
	<unicode hex="0073"/>
	<outline>
		<contour>
			<point x="182" y="-12" type="curve"/>
			<point x="182" y="-12" type="line"/>
			<point x="231" y="1"/>
			<point x="304" y="35"/>
			<point x="341" y="64" type="curve"/>
			<point x="354" y="172"/>
			<point x="350" y="222"/>
			<point x="305" y="266" type="curve"/>
			<point x="315" y="288"/>
			<point x="343" y="307"/>
			<point x="365" y="323" type="curve"/>
			<point x="341" y="392"/>
			<point x="283" y="436"/>
			<point x="246" y="460" type="curve"/>
			<point x="165" y="441"/>
			<point x="98" y="431"/>
			<point x="31" y="338" type="curve"/>
			<point x="37" y="296"/>
			<point x="62" y="237"/>
			<point x="85" y="181" type="curve"/>
			<point x="20" y="115" type="line"/>
			<point x="68" y="72"/>
			<point x="117" y="28"/>
		</contour>
		<contour>
			<point x="228" y="37" type="curve"/>
			<point x="228" y="37" type="line"/>
			<point x="185" y="55"/>
			<point x="122" y="115"/>
			<point x="107" y="152" type="curve"/>
			<point x="133" y="189"/>
			<point x="178" y="210"/>
			<point x="235" y="229" type="curve"/>
			<point x="250" y="220"/>
			<point x="258" y="208"/>
			<point x="264" y="194" type="curve"/>
			<point x="267" y="128"/>
			<point x="262" y="46"/>
		</contour>
		<contour>
			<point x="144" y="236" type="curve"/>
			<point x="144" y="236" type="line"/>
			<point x="134" y="270"/>
			<point x="126" y="314"/>
			<point x="125" y="348" type="curve"/>
			<point x="126" y="377"/>
			<point x="145" y="399"/>
			<point x="167" y="410" type="curve"/>
			<point x="213" y="388"/>
			<point x="286" y="348"/>
			<point x="286" y="292" type="curve"/>
			<point x="234" y="258"/>
			<point x="189" y="241"/>
		</contour>
	</outline>
</glyph>
<glyph name="t" format="2">
	<advance width="277"/>
	<unicode hex="0074"/>
	<outline>
		<contour>
			<point x="146" y="-10" type="curve"/>
			<point x="146" y="-10" type="line"/>
			<point x="229" y="52" type="line"/>
			<point x="229" y="58" type="line"/>
			<point x="184" y="77"/>
			<point x="142" y="111"/>
			<point x="142" y="127" type="curve"/>
			<point x="136" y="209"/>
			<point x="141" y="313"/>
			<point x="143" y="370" type="curve"/>
			<point x="188" y="370"/>
			<point x="231" y="367"/>
			<point x="276" y="362" type="curve"/>
			<point x="277" y="445" type="line"/>
			<point x="145" y="445" type="line"/>
			<point x="147" y="493"/>
			<point x="151" y="534"/>
			<point x="163" y="592" type="curve"/>
			<point x="147" y="596" type="line"/>
			<point x="107" y="520"/>
			<point x="59" y="450"/>
			<point x="20" y="394" type="curve"/>
			<point x="21" y="385" type="line"/>
			<point x="35" y="376"/>
			<point x="51" y="359"/>
			<point x="66" y="340" type="curve"/>
			<point x="69" y="270"/>
			<point x="70" y="137"/>
			<point x="60" y="56" type="curve"/>
			<point x="82" y="30"/>
			<point x="104" y="10"/>
		</contour>
	</outline>
</glyph>
<glyph name="u" format="2">
	<advance width="418"/>
	<unicode hex="0075"/>
	<outline>
		<contour>
			<point x="317" y="-24" type="curve"/>
			<point x="403" y="48" type="line"/>
			<point x="403" y="54" type="line"/>
			<point x="393" y="66"/>
			<point x="382" y="73"/>
			<point x="370" y="88" type="curve"/>
			<point x="370" y="242"/>
			<point x="365" y="339"/>
			<point x="393" y="414" type="curve"/>
			<point x="346" y="478" type="line"/>
			<point x="249" y="401" type="line"/>
			<point x="249" y="397" type="line"/>
			<point x="264" y="384"/>
			<point x="280" y="372"/>
			<point x="289" y="363" type="curve"/>
			<point x="292" y="308"/>
			<point x="292" y="172"/>
			<point x="281" y="106" type="curve" smooth="yes"/>
			<point x="280" y="102" type="line"/>
			<point x="255" y="85"/>
			<point x="231" y="74"/>
			<point x="204" y="66" type="curve"/>
			<point x="175" y="75"/>
			<point x="151" y="90"/>
			<point x="137" y="103" type="curve"/>
			<point x="139" y="363" type="line" smooth="yes"/>
			<point x="139" y="378"/>
			<point x="155" y="384"/>
			<point x="161" y="393" type="curve"/>
			<point x="83" y="478" type="line"/>
			<point x="5" y="415" type="line"/>
			<point x="5" y="412" type="line"/>
			<point x="25" y="394"/>
			<point x="46" y="377"/>
			<point x="53" y="366" type="curve"/>
			<point x="62" y="269"/>
			<point x="63" y="109"/>
			<point x="43" y="41" type="curve"/>
			<point x="46" y="35" type="line"/>
			<point x="63" y="33"/>
			<point x="72" y="30"/>
			<point x="83" y="23" type="curve" smooth="yes"/>
			<point x="101" y="13"/>
			<point x="135" y="-2"/>
			<point x="158" y="-18" type="curve"/>
			<point x="197" y="14"/>
			<point x="227" y="39"/>
			<point x="265" y="60" type="curve"/>
			<point x="292" y="33"/>
			<point x="306" y="6"/>
		</contour>
	</outline>
</glyph>
<glyph name="v" format="2">
	<advance width="427"/>
	<unicode hex="0076"/>
	<outline>
		<contour>
			<point x="240" y="-13" type="curve"/>
			<point x="240" y="-13" type="line"/>
			<point x="380" y="48" type="line"/>
			<point x="402" y="212"/>
			<point x="388" y="383"/>
			<point x="388" y="430" type="curve"/>
			<point x="326" y="441"/>
			<point x="248" y="450"/>
			<point x="186" y="469" type="curve"/>
			<point x="139" y="400" type="line"/>
			<point x="92" y="450" type="line"/>
			<point x="-5" y="408" type="line"/>
			<point x="-5" y="402" type="line"/>
			<point x="22" y="373"/>
			<point x="63" y="339"/>
			<point x="68" y="287" type="curve"/>
			<point x="73" y="209"/>
			<point x="62" y="125"/>
			<point x="51" y="59" type="curve"/>
			<point x="115" y="35"/>
			<point x="198" y="3"/>
		</contour>
		<contour>
			<point x="305" y="60" type="curve"/>
			<point x="305" y="60" type="line"/>
			<point x="235" y="61"/>
			<point x="179" y="82"/>
			<point x="146" y="93" type="curve"/>
			<point x="140" y="178"/>
			<point x="139" y="283"/>
			<point x="140" y="360" type="curve"/>
			<point x="158" y="384" type="line"/>
			<point x="211" y="377"/>
			<point x="267" y="366"/>
			<point x="311" y="352" type="curve"/>
			<point x="322" y="256"/>
			<point x="318" y="156"/>
		</contour>
	</outline>
</glyph>
<glyph name="w" format="2">
	<advance width="643"/>
	<unicode hex="0077"/>
	<outline>
		<contour>
			<point x="238" y="-26" type="curve"/>
			<point x="238" y="-26" type="line"/>
			<point x="300" y="49" type="line"/>
			<point x="372" y="48"/>
			<point x="447" y="17"/>
			<point x="486" y="-15" type="curve"/>
			<point x="527" y="32"/>
			<point x="579" y="78"/>
			<point x="602" y="99" type="curve"/>
			<point x="600" y="177"/>
			<point x="589" y="320"/>
			<point x="608" y="426" type="curve"/>
			<point x="564" y="426"/>
			<point x="459" y="457"/>
			<point x="428" y="470" type="curve"/>
			<point x="362" y="414" type="line"/>
			<point x="319" y="432"/>
			<point x="258" y="458"/>
			<point x="235" y="465" type="curve"/>
			<point x="213" y="447"/>
			<point x="193" y="430"/>
			<point x="168" y="418" type="curve"/>
			<point x="89" y="473" type="line"/>
			<point x="15" y="404" type="line"/>
			<point x="15" y="397" type="line"/>
			<point x="33" y="387"/>
			<point x="56" y="366"/>
			<point x="67" y="340" type="curve"/>
			<point x="68" y="247"/>
			<point x="59" y="134"/>
			<point x="45" y="56" type="curve"/>
			<point x="104" y="49"/>
			<point x="196" y="21"/>
		</contour>
		<contour>
			<point x="273" y="67" type="curve"/>
			<point x="273" y="67" type="line"/>
			<point x="212" y="85"/>
			<point x="170" y="97"/>
			<point x="133" y="116" type="curve"/>
			<point x="126" y="212"/>
			<point x="137" y="297"/>
			<point x="139" y="373" type="curve"/>
			<point x="152" y="386" type="line"/>
			<point x="198" y="382"/>
			<point x="247" y="365"/>
			<point x="292" y="347" type="curve"/>
			<point x="291" y="243"/>
			<point x="293" y="141"/>
		</contour>
		<contour>
			<point x="517" y="81" type="curve"/>
			<point x="517" y="81" type="line"/>
			<point x="491" y="73"/>
			<point x="406" y="104"/>
			<point x="363" y="118" type="curve"/>
			<point x="357" y="178"/>
			<point x="359" y="260"/>
			<point x="364" y="362" type="curve"/>
			<point x="372" y="379"/>
			<point x="377" y="386"/>
			<point x="384" y="394" type="curve"/>
			<point x="432" y="390"/>
			<point x="490" y="370"/>
			<point x="519" y="356" type="curve"/>
			<point x="526" y="268"/>
			<point x="525" y="188"/>
		</contour>
	</outline>
</glyph>
<glyph name="x" format="2">
	<advance width="395"/>
	<unicode hex="0078"/>
	<outline>
		<contour>
			<point x="305" y="-9" type="curve"/>
			<point x="305" y="-9" type="line"/>
			<point x="389" y="50" type="line"/>
			<point x="390" y="55" type="line"/>
			<point x="333" y="115"/>
			<point x="285" y="185"/>
			<point x="241" y="255" type="curve"/>
			<point x="365" y="420" type="line"/>
			<point x="312" y="454" type="line"/>
			<point x="218" y="290" type="line"/>
			<point x="180" y="351"/>
			<point x="144" y="410"/>
			<point x="105" y="464" type="curve"/>
			<point x="25" y="408" type="line"/>
			<point x="25" y="402" type="line"/>
			<point x="74" y="349"/>
			<point x="122" y="286"/>
			<point x="166" y="222" type="curve"/>
			<point x="5" y="37" type="line"/>
			<point x="55" y="0" type="line"/>
			<point x="187" y="191" type="line"/>
			<point x="236" y="117"/>
			<point x="277" y="45"/>
		</contour>
	</outline>
</glyph>
<glyph name="y" format="2">
	<advance width="445"/>
	<unicode hex="0079"/>
	<outline>
		<contour>
			<point x="117" y="-152" type="line"/>
			<point x="177" y="-143" type="line"/>
			<point x="238" y="55"/>
			<point x="344" y="278"/>
			<point x="440" y="445" type="curve"/>
			<point x="440" y="448" type="line"/>
			<point x="360" y="448" type="line"/>
			<point x="329" y="368"/>
			<point x="273" y="251"/>
			<point x="238" y="156" type="curve"/>
			<point x="195" y="255"/>
			<point x="143" y="367"/>
			<point x="107" y="451" type="curve"/>
			<point x="5" y="448" type="line"/>
			<point x="5" y="443" type="line"/>
			<point x="55" y="355"/>
			<point x="138" y="183"/>
			<point x="193" y="41" type="curve"/>
			<point x="115" y="-148" type="line"/>
		</contour>
	</outline>
</glyph>
<glyph name="z" format="2">
	<advance width="404"/>
	<unicode hex="007A"/>
	<outline>
		<contour>
			<point x="348" y="-5" type="curve"/>
			<point x="348" y="-5" type="line"/>
			<point x="399" y="88" type="line"/>
			<point x="394" y="93" type="line"/>
			<point x="349" y="78"/>
			<point x="206" y="103"/>
			<point x="143" y="104" type="curve"/>
			<point x="193" y="182"/>
			<point x="315" y="357"/>
			<point x="380" y="456" type="curve"/>
			<point x="377" y="464" type="line"/>
			<point x="292" y="451"/>
			<point x="170" y="445"/>
			<point x="22" y="452" type="curve"/>
			<point x="9" y="365" type="line"/>
			<point x="15" y="359" type="line"/>
			<point x="42" y="373"/>
			<point x="193" y="373"/>
			<point x="271" y="370" type="curve"/>
			<point x="216" y="269"/>
			<point x="87" y="100"/>
			<point x="5" y="7" type="curve"/>
			<point x="9" y="0" type="line"/>
			<point x="96" y="30"/>
			<point x="151" y="23"/>
		</contour>
	</outline>
</glyph>
<glyph name="Adieresis" format="2">
	<advance width="721"/>
	<unicode hex="00C4"/>
	<outline>
		<contour>
			<point x="270" y="701" type="line"/>
			<point x="5" y="0" type="line"/>
			<point x="93" y="0" type="line"/>
			<point x="109" y="50"/>
			<point x="123" y="98"/>
			<point x="138" y="146" type="curve"/>
			<point x="271" y="143"/>
			<point x="404" y="140"/>
			<point x="537" y="118" type="curve"/>
			<point x="551" y="80"/>
			<point x="565" y="40"/>
			<point x="578" y="0" type="curve"/>
			<point x="716" y="0" type="line"/>
			<point x="616" y="174"/>
			<point x="506" y="468"/>
			<point x="396" y="702" type="curve"/>
		</contour>
		<contour>
			<point x="502" y="210" type="curve"/>
			<point x="502" y="210" type="line"/>
			<point x="390" y="210"/>
			<point x="278" y="212"/>
			<point x="165" y="230" type="curve"/>
			<point x="207" y="357"/>
			<point x="255" y="480"/>
			<point x="326" y="612" type="curve"/>
			<point x="392" y="477"/>
			<point x="449" y="347"/>
		</contour>
		<contour>
			<point x="30" y="569" type="line"/>
			<point x="35" y="566" type="line"/>
			<point x="105" y="577" type="line"/>
			<point x="202" y="698" type="line"/>
			<point x="85" y="695" type="line"/>
		</contour>
		<contour>
			<point x="509" y="609" type="line"/>
			<point x="571" y="599" type="line"/>
			<point x="654" y="703" type="line"/>
			<point x="651" y="706" type="line"/>
			<point x="538" y="707" type="line"/>
		</contour>
	</outline>
</glyph>
<glyph name="Odieresis" format="2">
	<advance width="818"/>
	<unicode hex="00D6"/>
	<outline>
		<contour>
			<point x="418" y="-10" type="curve"/>
			<point x="418" y="-10" type="line"/>
			<point x="619" y="-10"/>
			<point x="783" y="153"/>
			<point x="783" y="355" type="curve"/>
			<point x="783" y="554"/>
			<point x="612" y="710"/>
			<point x="407" y="710" type="curve"/>
			<point x="200" y="710"/>
			<point x="37" y="538"/>
			<point x="37" y="332" type="curve"/>
			<point x="37" y="144"/>
			<point x="206" y="-10"/>
		</contour>
		<contour>
			<point x="25" y="533" type="line"/>
			<point x="33" y="530" type="line"/>
			<point x="215" y="699" type="line"/>
			<point x="214" y="706" type="line"/>
			<point x="53" y="685" type="line"/>
		</contour>
		<contour>
			<point x="444" y="77" type="curve"/>
			<point x="444" y="77" type="line"/>
			<point x="284" y="77"/>
			<point x="151" y="190"/>
			<point x="151" y="350" type="curve"/>
			<point x="151" y="510"/>
			<point x="267" y="650"/>
			<point x="427" y="650" type="curve"/>
			<point x="585" y="650"/>
			<point x="726" y="542"/>
			<point x="726" y="352" type="curve"/>
			<point x="726" y="202"/>
			<point x="594" y="77"/>
		</contour>
		<contour>
			<point x="669" y="693" type="line"/>
			<point x="785" y="506" type="line"/>
			<point x="793" y="508" type="line"/>
			<point x="767" y="682" type="line"/>
			<point x="671" y="697" type="line"/>
		</contour>
	</outline>
</glyph>
<glyph name="Udieresis" format="2">
	<advance width="697"/>
	<unicode hex="00DC"/>
	<outline>
		<contour>
			<point x="282" y="-11" type="curve"/>
			<point x="282" y="-11" type="line"/>
			<point x="399" y="56"/>
			<point x="486" y="128"/>
			<point x="525" y="186" type="curve"/>
			<point x="524" y="126"/>
			<point x="523" y="64"/>
			<point x="524" y="0" type="curve"/>
			<point x="663" y="0" type="line"/>
			<point x="663" y="10" type="line"/>
			<point x="654" y="22"/>
			<point x="640" y="41"/>
			<point x="635" y="84" type="curve"/>
			<point x="617" y="235"/>
			<point x="636" y="474"/>
			<point x="651" y="644" type="curve"/>
			<point x="652" y="660"/>
			<point x="665" y="680"/>
			<point x="672" y="693" type="curve"/>
			<point x="672" y="700" type="line"/>
			<point x="534" y="697" type="line"/>
			<point x="540" y="629"/>
			<point x="533" y="498"/>
			<point x="528" y="334" type="curve"/>
			<point x="507" y="165"/>
			<point x="385" y="93"/>
			<point x="316" y="93" type="curve"/>
			<point x="236" y="93"/>
			<point x="163" y="162"/>
			<point x="160" y="265" type="curve"/>
			<point x="156" y="391"/>
			<point x="149" y="570"/>
			<point x="164" y="686" type="curve"/>
			<point x="15" y="686" type="line"/>
			<point x="16" y="678" type="line"/>
			<point x="33" y="647"/>
			<point x="52" y="632"/>
			<point x="55" y="593" type="curve"/>
			<point x="62" y="498"/>
			<point x="81" y="240"/>
			<point x="64" y="114" type="curve"/>
			<point x="107" y="62"/>
			<point x="195" y="23"/>
		</contour>
		<contour>
			<point x="270" y="443" type="line"/>
			<point x="286" y="442" type="line"/>
			<point x="325" y="697" type="line"/>
			<point x="306" y="698" type="line"/>
			<point x="249" y="605" type="line"/>
		</contour>
		<contour>
			<point x="394" y="619" type="line"/>
			<point x="397" y="432" type="line"/>
			<point x="414" y="434" type="line"/>
			<point x="478" y="700" type="line"/>
			<point x="461" y="702" type="line"/>
		</contour>
	</outline>
</glyph>
<glyph name="germandbls" format="2">
	<advance width="418"/>
	<unicode hex="00DF"/>
	<outline>
		<contour>
			<point x="276" y="-166" type="line"/>
			<point x="371" y="-61"/>
			<point x="374" y="38"/>
			<point x="374" y="121" type="curve"/>
			<point x="338" y="165"/>
			<point x="291" y="184"/>
			<point x="249" y="206" type="curve"/>
			<point x="247" y="206" type="line"/>
			<point x="280" y="256"/>
			<point x="370" y="352"/>
			<point x="411" y="398" type="curve"/>
			<point x="413" y="410" type="line"/>
			<point x="376" y="424"/>
			<point x="268" y="472"/>
			<point x="240" y="502" type="curve"/>
			<point x="206" y="478"/>
			<point x="180" y="457"/>
			<point x="143" y="439" type="curve"/>
			<point x="145" y="531"/>
			<point x="149" y="610"/>
			<point x="155" y="633" type="curve"/>
			<point x="266" y="593" type="line"/>
			<point x="274" y="596" type="line"/>
			<point x="313" y="669" type="line"/>
			<point x="280" y="676"/>
			<point x="216" y="697"/>
			<point x="183" y="710" type="curve"/>
			<point x="52" y="626" type="line"/>
			<point x="65" y="496"/>
			<point x="58" y="162"/>
			<point x="45" y="30" type="curve"/>
			<point x="119" y="-27" type="line"/>
			<point x="140" y="0"/>
			<point x="154" y="19"/>
			<point x="181" y="39" type="curve"/>
			<point x="181" y="47" type="line"/>
			<point x="165" y="52"/>
			<point x="148" y="61"/>
			<point x="132" y="83" type="curve"/>
			<point x="133" y="97"/>
			<point x="135" y="117"/>
			<point x="136" y="142" type="curve"/>
			<point x="147" y="151"/>
			<point x="158" y="157"/>
			<point x="173" y="160" type="curve"/>
			<point x="297" y="113"/>
			<point x="339" y="-7"/>
			<point x="259" y="-156" type="curve"/>
		</contour>
		<contour>
			<point x="137" y="189" type="line"/>
			<point x="139" y="246"/>
			<point x="140" y="317"/>
			<point x="142" y="384" type="curve"/>
			<point x="166" y="414" type="line"/>
			<point x="188" y="404"/>
			<point x="279" y="369"/>
			<point x="304" y="338" type="curve"/>
			<point x="270" y="297"/>
			<point x="234" y="243"/>
			<point x="165" y="193" type="curve"/>
		</contour>
	</outline>
</glyph>
<glyph name="adieresis" format="2">
	<advance width="427"/>
	<unicode hex="00E4"/>
	<outline>
		<contour>
			<point x="333" y="-37" type="curve"/>
			<point x="333" y="-37" type="line"/>
			<point x="412" y="42" type="line"/>
			<point x="379" y="73" type="line"/>
			<point x="374" y="162"/>
			<point x="380" y="287"/>
			<point x="392" y="378" type="curve"/>
			<point x="348" y="394"/>
			<point x="276" y="433"/>
			<point x="220" y="460" type="curve"/>
			<point x="161" y="425"/>
			<point x="108" y="405"/>
			<point x="40" y="378" type="curve"/>
			<point x="60" y="253"/>
			<point x="52" y="139"/>
			<point x="45" y="33" type="curve"/>
			<point x="89" y="21"/>
			<point x="133" y="2"/>
			<point x="174" y="-13" type="curve"/>
			<point x="206" y="13"/>
			<point x="240" y="36"/>
			<point x="271" y="41" type="curve"/>
			<point x="279" y="41"/>
			<point x="313" y="-10"/>
		</contour>
		<contour>
			<point x="295" y="61" type="curve"/>
			<point x="295" y="61" type="line"/>
			<point x="219" y="55"/>
			<point x="151" y="80"/>
			<point x="133" y="96" type="curve"/>
			<point x="133" y="378" type="line"/>
			<point x="182" y="374"/>
			<point x="259" y="355"/>
			<point x="304" y="333" type="curve"/>
			<point x="297" y="240"/>
			<point x="295" y="156"/>
		</contour>
		<contour>
			<point x="219" y="662" type="line"/>
			<point x="129" y="494" type="line"/>
			<point x="165" y="500" type="line"/>
			<point x="275" y="659" type="line"/>
			<point x="277" y="668" type="line"/>
		</contour>
		<contour>
			<point x="334" y="676" type="line"/>
			<point x="239" y="505" type="line"/>
			<point x="272" y="513" type="line"/>
			<point x="401" y="676" type="line"/>
			<point x="402" y="684" type="line"/>
		</contour>
	</outline>
</glyph>
<glyph name="odieresis" format="2">
	<advance width="388"/>
	<unicode hex="00F6"/>
	<outline>
		<contour>
			<point x="183" y="-10" type="curve"/>
			<point x="183" y="-10" type="line"/>
			<point x="348" y="66" type="line"/>
			<point x="339" y="173"/>
			<point x="347" y="285"/>
			<point x="358" y="381" type="curve"/>
			<point x="297" y="412"/>
			<point x="253" y="430"/>
			<point x="201" y="473" type="curve"/>
			<point x="35" y="377" type="line"/>
			<point x="42" y="289"/>
			<point x="38" y="189"/>
			<point x="30" y="72" type="curve"/>
			<point x="80" y="50"/>
			<point x="135" y="22"/>
		</contour>
		<contour>
			<point x="271" y="340" type="curve"/>
			<point x="264" y="70" type="line"/>
			<point x="194" y="82"/>
			<point x="143" y="101"/>
			<point x="110" y="124" type="curve"/>
			<point x="120" y="378" type="line"/>
			<point x="174" y="373"/>
			<point x="224" y="363"/>
		</contour>
		<contour>
			<point x="144" y="691" type="line"/>
			<point x="108" y="535" type="line"/>
			<point x="129" y="535" type="line"/>
			<point x="193" y="688" type="line"/>
		</contour>
		<contour>
			<point x="254" y="688" type="line"/>
			<point x="207" y="533" type="line"/>
			<point x="229" y="533" type="line"/>
			<point x="302" y="686" type="line"/>
		</contour>
	</outline>
</glyph>
<glyph name="udieresis" format="2">
	<advance width="418"/>
	<unicode hex="00FC"/>
	<outline>
		<contour>
			<point x="317" y="-24" type="curve"/>
			<point x="317" y="-24" type="line"/>
			<point x="403" y="48" type="line"/>
			<point x="403" y="54" type="line"/>
			<point x="393" y="66"/>
			<point x="382" y="73"/>
			<point x="370" y="88" type="curve"/>
			<point x="370" y="242"/>
			<point x="365" y="339"/>
			<point x="393" y="414" type="curve"/>
			<point x="346" y="478" type="line"/>
			<point x="249" y="401" type="line"/>
			<point x="249" y="397" type="line"/>
			<point x="264" y="384"/>
			<point x="280" y="372"/>
			<point x="289" y="363" type="curve"/>
			<point x="292" y="308"/>
			<point x="292" y="172"/>
			<point x="281" y="106" type="curve"/>
			<point x="280" y="102" type="line"/>
			<point x="255" y="85"/>
			<point x="231" y="74"/>
			<point x="204" y="66" type="curve"/>
			<point x="175" y="75"/>
			<point x="151" y="90"/>
			<point x="137" y="103" type="curve"/>
			<point x="139" y="363" type="line" smooth="yes"/>
			<point x="139" y="378"/>
			<point x="155" y="384"/>
			<point x="161" y="393" type="curve"/>
			<point x="83" y="478" type="line"/>
			<point x="5" y="415" type="line"/>
			<point x="5" y="412" type="line"/>
			<point x="25" y="394"/>
			<point x="46" y="377"/>
			<point x="53" y="366" type="curve"/>
			<point x="62" y="269"/>
			<point x="63" y="109"/>
			<point x="43" y="41" type="curve"/>
			<point x="46" y="35" type="line"/>
			<point x="63" y="33"/>
			<point x="72" y="30"/>
			<point x="83" y="23" type="curve"/>
			<point x="101" y="13"/>
			<point x="135" y="-2"/>
			<point x="158" y="-18" type="curve"/>
			<point x="197" y="14"/>
			<point x="227" y="39"/>
			<point x="265" y="60" type="curve"/>
			<point x="292" y="33"/>
			<point x="306" y="6"/>
		</contour>
		<contour>
			<point x="173" y="712" type="line"/>
			<point x="88" y="540" type="line"/>
			<point x="121" y="547" type="line"/>
			<point x="231" y="723" type="line"/>
		</contour>
		<contour>
			<point x="294" y="718" type="line"/>
			<point x="207" y="548" type="line"/>
			<point x="235" y="552" type="line"/>
			<point x="356" y="729" type="line"/>
		</contour>
	</outline>
</glyph>
<glyph name="longs" format="2">
	<advance width="193"/>
	<unicode hex="017F"/>
	<outline>
		<contour>
			<point x="113" y="-10" type="line"/>
			<point x="183" y="60" type="line"/>
			<point x="183" y="65" type="line"/>
			<point x="135" y="98" type="line"/>
			<point x="129" y="178"/>
			<point x="135" y="569"/>
			<point x="135" y="633" type="curve"/>
			<point x="214" y="599" type="line"/>
			<point x="217" y="601" type="line"/>
			<point x="248" y="673" type="line"/>
			<point x="215" y="688"/>
			<point x="173" y="697"/>
			<point x="140" y="710" type="curve"/>
			<point x="47" y="641" type="line"/>
			<point x="60" y="511"/>
			<point x="58" y="185"/>
			<point x="45" y="53" type="curve"/>
		</contour>
	</outline>
</glyph>
<glyph name="quotedblleft" format="2">
	<advance width="209"/>
	<unicode hex="201C"/>
	<outline>
		<contour>
			<point x="87" y="-156" type="line"/>
			<point x="118" y="-155" type="line"/>
			<point x="189" y="129" type="line"/>
			<point x="147" y="128" type="line"/>
		</contour>
		<contour>
			<point x="20" y="-159" type="line"/>
			<point x="52" y="-158" type="line"/>
			<point x="114" y="134" type="line"/>
			<point x="74" y="133" type="line"/>
		</contour>
	</outline>
</glyph>
<glyph name="quotedblright" format="2">
	<advance width="209"/>
	<unicode hex="201D"/>
	<outline>
		<contour>
			<point x="147" y="699" type="line"/>
			<point x="87" y="415" type="line"/>
			<point x="118" y="416" type="line"/>
			<point x="189" y="700" type="line"/>
		</contour>
		<contour>
			<point x="74" y="704" type="line"/>
			<point x="20" y="412" type="line"/>
			<point x="52" y="413" type="line"/>
			<point x="114" y="705" type="line"/>
		</contour>
	</outline>
</glyph>
<glyph name="D.ss01" format="2">
	<advance width="650"/>
	<outline>
		<contour>
			<point x="197" y="-4" type="curve" smooth="yes"/>
			<point x="423" y="-6"/>
			<point x="625" y="110"/>
			<point x="625" y="354" type="curve" smooth="yes"/>
			<point x="625" y="562"/>
			<point x="471" y="707"/>
			<point x="277" y="707" type="curve" smooth="yes"/>
			<point x="221" y="707"/>
			<point x="106" y="700"/>
			<point x="53" y="700" type="curve"/>
			<point x="53" y="687" type="line"/>
			<point x="94" y="634" type="line"/>
			<point x="99" y="441"/>
			<point x="95" y="248"/>
			<point x="82" y="55" type="curve"/>
			<point x="40" y="9" type="line"/>
			<point x="41" y="-1" type="line"/>
			<point x="95" y="-3"/>
			<point x="133" y="-3"/>
		</contour>
		<contour>
			<point x="193" y="46" type="curve"/>
			<point x="187" y="213"/>
			<point x="190" y="468"/>
			<point x="202" y="666" type="curve"/>
			<point x="402" y="679"/>
			<point x="515" y="542"/>
			<point x="515" y="354" type="curve" smooth="yes"/>
			<point x="515" y="166"/>
			<point x="385" y="1"/>
		</contour>
	</outline>
</glyph>
<glyph name="H.ss01" format="2">
	<advance width="581"/>
	<outline>
		<contour>
			<point x="45" y="0" type="curve"/>
			<point x="45" y="0" type="line"/>
			<point x="176" y="0" type="line"/>
			<point x="165" y="62"/>
			<point x="160" y="158"/>
			<point x="159" y="261" type="curve"/>
			<point x="182" y="332"/>
			<point x="240" y="381"/>
			<point x="302" y="381" type="curve"/>
			<point x="448" y="381"/>
			<point x="458" y="204"/>
			<point x="434" y="0" type="curve"/>
			<point x="556" y="0" type="line"/>
			<point x="543" y="90"/>
			<point x="536" y="184"/>
			<point x="536" y="247" type="curve"/>
			<point x="536" y="368"/>
			<point x="467" y="450"/>
			<point x="380" y="450" type="curve"/>
			<point x="275" y="450"/>
			<point x="214" y="403"/>
			<point x="159" y="351" type="curve"/>
			<point x="160" y="486"/>
			<point x="167" y="621"/>
			<point x="176" y="700" type="curve"/>
			<point x="40" y="700" type="line"/>
			<point x="63" y="465"/>
			<point x="72" y="223"/>
		</contour>
	</outline>
</glyph>
<glyph name="K.ss01" format="2">
	<advance width="691"/>
	<outline>
		<contour>
			<point x="589" y="-40" type="curve"/>
			<point x="589" y="-40" type="line"/>
			<point x="686" y="50" type="line"/>
			<point x="572" y="153"/>
			<point x="497" y="234"/>
			<point x="374" y="363" type="curve"/>
			<point x="463" y="463"/>
			<point x="548" y="529"/>
			<point x="675" y="622" type="curve"/>
			<point x="596" y="680" type="line"/>
			<point x="505" y="565"/>
			<point x="396" y="441"/>
			<point x="295" y="332" type="curve"/>
			<point x="297" y="491"/>
			<point x="306" y="632"/>
			<point x="314" y="704" type="curve"/>
			<point x="307" y="708" type="line"/>
			<point x="252" y="630" type="line"/>
			<point x="259" y="445"/>
			<point x="259" y="276"/>
			<point x="250" y="91" type="curve"/>
			<point x="172" y="90" type="line"/>
			<point x="173" y="247"/>
			<point x="188" y="539"/>
			<point x="198" y="700" type="curve"/>
			<point x="25" y="661" type="line"/>
			<point x="25" y="646" type="line"/>
			<point x="68" y="643"/>
			<point x="93" y="622"/>
			<point x="93" y="570" type="curve"/>
			<point x="93" y="473"/>
			<point x="98" y="263"/>
			<point x="82" y="105" type="curve"/>
			<point x="78" y="66"/>
			<point x="54" y="35"/>
			<point x="37" y="-1" type="curve"/>
			<point x="38" y="-5" type="line"/>
			<point x="125" y="15"/>
			<point x="182" y="10"/>
			<point x="299" y="-5" type="curve"/>
			<point x="303" y="0" type="line"/>
			<point x="296" y="94"/>
			<point x="294" y="194"/>
			<point x="294" y="288" type="curve"/>
			<point x="387" y="220"/>
			<point x="499" y="67"/>
		</contour>
	</outline>
</glyph>
<glyph name="S.ss01" format="2">
	<advance width="446"/>
	<outline>
		<contour>
			<point x="237" y="-10" type="curve" smooth="yes"/>
			<point x="340" y="-10"/>
			<point x="421" y="75"/>
			<point x="421" y="208" type="curve" smooth="yes"/>
			<point x="421" y="318"/>
			<point x="371" y="387"/>
			<point x="259" y="433" type="curve" smooth="yes"/>
			<point x="166" y="471"/>
			<point x="117" y="507"/>
			<point x="117" y="570" type="curve" smooth="yes"/>
			<point x="117" y="625"/>
			<point x="148" y="661"/>
			<point x="207" y="661" type="curve" smooth="yes"/>
			<point x="327" y="661"/>
			<point x="337" y="446"/>
			<point x="340" y="401" type="curve"/>
			<point x="373" y="400" type="line"/>
			<point x="370" y="444"/>
			<point x="371" y="637"/>
			<point x="388" y="687" type="curve"/>
			<point x="363" y="694" type="line"/>
			<point x="361" y="683"/>
			<point x="345" y="655"/>
			<point x="336" y="620" type="curve"/>
			<point x="314" y="669"/>
			<point x="270" y="710"/>
			<point x="201" y="710" type="curve" smooth="yes"/>
			<point x="117" y="710"/>
			<point x="37" y="639"/>
			<point x="37" y="520" type="curve" smooth="yes"/>
			<point x="37" y="408"/>
			<point x="92" y="345"/>
			<point x="195" y="302" type="curve" smooth="yes"/>
			<point x="279" y="267"/>
			<point x="335" y="224"/>
			<point x="335" y="150" type="curve" smooth="yes"/>
			<point x="335" y="75"/>
			<point x="290" y="33"/>
			<point x="237" y="33" type="curve" smooth="yes"/>
			<point x="141" y="33"/>
			<point x="95" y="188"/>
			<point x="85" y="340" type="curve"/>
			<point x="52" y="340" type="line"/>
			<point x="56" y="288"/>
			<point x="55" y="161"/>
			<point x="35" y="61" type="curve"/>
			<point x="59" y="53" type="line"/>
			<point x="85" y="115" type="line"/>
			<point x="114" y="40"/>
			<point x="167" y="-10"/>
		</contour>
	</outline>
</glyph>
<glyph name="a_e" format="2">
	<advance width="600"/>
	<outline>
		<contour>
			<point x="312" y="51" type="line"/>
			<point x="462" y="-11" type="line"/>
			<point x="548" y="43" type="line"/>
			<point x="545" y="51" type="line"/>
			<point x="410" y="81"/>
			<point x="369" y="85"/>
			<point x="364" y="170" type="curve"/>
			<point x="595" y="292" type="line"/>
			<point x="595" y="302" type="line"/>
			<point x="461" y="474" type="line"/>
			<point x="337" y="414" type="line"/>
			<point x="284" y="425"/>
			<point x="206" y="446"/>
			<point x="156" y="471" type="curve"/>
			<point x="44" y="392" type="line"/>
			<point x="57" y="284"/>
			<point x="47" y="175"/>
			<point x="40" y="67" type="curve"/>
			<point x="239" y="-8" type="line"/>
		</contour>
		<contour>
			<point x="290" y="69" type="curve"/>
			<point x="290" y="69" type="line"/>
			<point x="238" y="59"/>
			<point x="201" y="81"/>
			<point x="122" y="113" type="curve"/>
			<point x="125" y="196" type="line"/>
			<point x="295" y="198" type="line"/>
			<point x="292" y="146"/>
			<point x="290" y="99"/>
		</contour>
		<contour>
			<point x="299" y="252" type="curve"/>
			<point x="299" y="252" type="line"/>
			<point x="127" y="253" type="line"/>
			<point x="133" y="398" type="line"/>
			<point x="307" y="352" type="line"/>
			<point x="304" y="321"/>
			<point x="302" y="287"/>
		</contour>
		<contour>
			<point x="512" y="270" type="line"/>
			<point x="363" y="224" type="line"/>
			<point x="366" y="316"/>
			<point x="381" y="381"/>
			<point x="393" y="413" type="curve"/>
			<point x="422" y="427" type="line"/>
		</contour>
	</outline>
</glyph>
<glyph name="c_h" format="2">
	<advance width="659"/>
	<outline>
		<contour>
			<point x="495" y="-64" type="curve"/>
			<point x="515" y="-72" type="line"/>
			<point x="577" y="18"/>
			<point x="599" y="83"/>
			<point x="619" y="140" type="curve"/>
			<point x="619" y="220"/>
			<point x="604" y="330"/>
			<point x="599" y="407" type="curve"/>
			<point x="552" y="430"/>
			<point x="530" y="443"/>
			<point x="492" y="464" type="curve"/>
			<point x="366" y="401" type="line"/>
			<point x="362" y="393" type="line"/>
			<point x="369" y="526"/>
			<point x="378" y="658"/>
			<point x="386" y="699" type="curve"/>
			<point x="380" y="710" type="line"/>
			<point x="265" y="685" type="line"/>
			<point x="276" y="610"/>
			<point x="279" y="517"/>
			<point x="278" y="424" type="curve"/>
			<point x="243" y="435"/>
			<point x="211" y="443"/>
			<point x="175" y="462" type="curve"/>
			<point x="41" y="376" type="line"/>
			<point x="51" y="307"/>
			<point x="40" y="181"/>
			<point x="40" y="70" type="curve"/>
			<point x="66" y="56"/>
			<point x="112" y="16"/>
			<point x="144" y="-10" type="curve"/>
			<point x="177" y="18"/>
			<point x="208" y="42"/>
			<point x="263" y="60" type="curve"/>
			<point x="356" y="-10" type="line"/>
			<point x="385" y="19"/>
			<point x="416" y="46"/>
			<point x="439" y="72" type="curve"/>
			<point x="438" y="81" type="line"/>
			<point x="406" y="86"/>
			<point x="371" y="101"/>
			<point x="348" y="122" type="curve"/>
			<point x="361" y="380" type="line"/>
			<point x="436" y="377"/>
			<point x="485" y="366"/>
			<point x="527" y="342" type="curve"/>
			<point x="527" y="173"/>
			<point x="554" y="70"/>
		</contour>
		<contour>
			<point x="257" y="80" type="curve"/>
			<point x="257" y="80" type="line"/>
			<point x="203" y="84"/>
			<point x="152" y="97"/>
			<point x="122" y="116" type="curve"/>
			<point x="106" y="223"/>
			<point x="126" y="322"/>
			<point x="137" y="375" type="curve"/>
			<point x="179" y="375"/>
			<point x="218" y="365"/>
			<point x="276" y="351" type="curve"/>
			<point x="272" y="242"/>
			<point x="263" y="142"/>
		</contour>
	</outline>
</glyph>
<glyph name="c_k" format="2">
	<advance width="652"/>
	<outline>
		<contour>
			<point x="508" y="46" type="curve"/>
			<point x="572" y="-37" type="line"/>
			<point x="647" y="20" type="line"/>
			<point x="647" y="32" type="line"/>
			<point x="608" y="51"/>
			<point x="598" y="62"/>
			<point x="590" y="75" type="curve"/>
			<point x="590" y="125"/>
			<point x="590" y="179"/>
			<point x="603" y="225" type="curve"/>
			<point x="582" y="237"/>
			<point x="549" y="259"/>
			<point x="533" y="274" type="curve"/>
			<point x="544" y="301"/>
			<point x="575" y="333"/>
			<point x="590" y="353" type="curve"/>
			<point x="563" y="397"/>
			<point x="519" y="434"/>
			<point x="478" y="475" type="curve"/>
			<point x="437" y="446"/>
			<point x="390" y="419"/>
			<point x="348" y="404" type="curve"/>
			<point x="355" y="524"/>
			<point x="371" y="640"/>
			<point x="394" y="697" type="curve"/>
			<point x="385" y="710" type="line"/>
			<point x="265" y="630" type="line"/>
			<point x="269" y="607"/>
			<point x="269" y="515"/>
			<point x="268" y="411" type="curve"/>
			<point x="223" y="424"/>
			<point x="171" y="446"/>
			<point x="135" y="462" type="curve"/>
			<point x="105" y="429"/>
			<point x="81" y="404"/>
			<point x="41" y="366" type="curve"/>
			<point x="51" y="297"/>
			<point x="40" y="191"/>
			<point x="40" y="80" type="curve"/>
			<point x="66" y="56"/>
			<point x="137" y="6"/>
			<point x="148" y="-10" type="curve"/>
			<point x="181" y="18"/>
			<point x="209" y="25"/>
			<point x="264" y="51" type="curve"/>
			<point x="296" y="35"/>
			<point x="321" y="17"/>
			<point x="354" y="-13" type="curve"/>
			<point x="440" y="49" type="line"/>
			<point x="440" y="59" type="line"/>
			<point x="384" y="71"/>
			<point x="362" y="86"/>
			<point x="347" y="106" type="curve"/>
			<point x="346" y="125"/>
			<point x="344" y="145"/>
			<point x="344" y="167" type="curve"/>
			<point x="371" y="196"/>
			<point x="442" y="226"/>
			<point x="481" y="226" type="curve"/>
			<point x="498" y="218"/>
			<point x="514" y="201"/>
			<point x="522" y="189" type="curve"/>
			<point x="522" y="114"/>
			<point x="524" y="74"/>
		</contour>
		<contour>
			<point x="258" y="71" type="curve"/>
			<point x="258" y="71" type="line"/>
			<point x="204" y="75"/>
			<point x="153" y="88"/>
			<point x="113" y="107" type="curve"/>
			<point x="116" y="214"/>
			<point x="123" y="321"/>
			<point x="127" y="374" type="curve"/>
			<point x="178" y="367"/>
			<point x="213" y="351"/>
			<point x="267" y="334" type="curve"/>
			<point x="265" y="223"/>
			<point x="261" y="114"/>
		</contour>
		<contour>
			<point x="343" y="221" type="curve"/>
			<point x="343" y="221" type="line"/>
			<point x="342" y="266"/>
			<point x="343" y="315"/>
			<point x="346" y="365" type="curve"/>
			<point x="356" y="374"/>
			<point x="365" y="381"/>
			<point x="379" y="387" type="curve"/>
			<point x="474" y="372"/>
			<point x="542" y="352"/>
			<point x="506" y="274" type="curve"/>
			<point x="479" y="260"/>
			<point x="408" y="227"/>
		</contour>
	</outline>
</glyph>
<glyph name="f_f" format="2">
	<advance width="467"/>
	<outline>
		<contour>
			<point x="113" y="-10" type="curve"/>
			<point x="172" y="74" type="line"/>
			<point x="119" y="97" type="line"/>
			<point x="119" y="137"/>
			<point x="120" y="243"/>
			<point x="122" y="350" type="curve"/>
			<point x="274" y="350" type="line"/>
			<point x="273" y="218"/>
			<point x="267" y="82"/>
			<point x="253" y="44" type="curve"/>
			<point x="288" y="27"/>
			<point x="311" y="12"/>
			<point x="339" y="-10" type="curve"/>
			<point x="398" y="74" type="line"/>
			<point x="345" y="97" type="line"/>
			<point x="345" y="137"/>
			<point x="346" y="243"/>
			<point x="348" y="350" type="curve"/>
			<point x="448" y="350" type="line"/>
			<point x="448" y="430" type="line"/>
			<point x="350" y="430" type="line"/>
			<point x="352" y="526"/>
			<point x="355" y="611"/>
			<point x="358" y="632" type="curve"/>
			<point x="387" y="622"/>
			<point x="422" y="610"/>
			<point x="447" y="597" type="curve"/>
			<point x="477" y="674" type="line"/>
			<point x="439" y="688"/>
			<point x="409" y="701"/>
			<point x="374" y="711" type="curve"/>
			<point x="258" y="636" type="line"/>
			<point x="267" y="627"/>
			<point x="273" y="537"/>
			<point x="274" y="430" type="curve"/>
			<point x="124" y="430" type="line"/>
			<point x="126" y="526"/>
			<point x="129" y="611"/>
			<point x="132" y="632" type="curve"/>
			<point x="161" y="622"/>
			<point x="196" y="610"/>
			<point x="221" y="597" type="curve"/>
			<point x="251" y="674" type="line"/>
			<point x="213" y="688"/>
			<point x="183" y="701"/>
			<point x="148" y="711" type="curve"/>
			<point x="32" y="636" type="line"/>
			<point x="41" y="627"/>
			<point x="46" y="540"/>
			<point x="48" y="435" type="curve"/>
			<point x="10" y="357" type="line"/>
			<point x="11" y="350" type="line"/>
			<point x="48" y="350" type="line"/>
			<point x="47" y="218"/>
			<point x="41" y="82"/>
			<point x="27" y="44" type="curve"/>
			<point x="62" y="27"/>
			<point x="85" y="12"/>
		</contour>
	</outline>
</glyph>
<glyph name="f_i" format="2">
	<advance width="429"/>
	<outline>
		<contour>
			<point x="113" y="-10" type="curve"/>
			<point x="172" y="74" type="line"/>
			<point x="119" y="97" type="line"/>
			<point x="119" y="137"/>
			<point x="120" y="243"/>
			<point x="122" y="350" type="curve"/>
			<point x="222" y="350" type="line"/>
			<point x="222" y="430" type="line"/>
			<point x="124" y="430" type="line"/>
			<point x="126" y="526"/>
			<point x="129" y="611"/>
			<point x="132" y="632" type="curve"/>
			<point x="161" y="622"/>
			<point x="196" y="610"/>
			<point x="221" y="597" type="curve"/>
			<point x="251" y="674" type="line"/>
			<point x="213" y="688"/>
			<point x="183" y="701"/>
			<point x="148" y="711" type="curve"/>
			<point x="32" y="636" type="line"/>
			<point x="41" y="627"/>
			<point x="46" y="540"/>
			<point x="48" y="435" type="curve"/>
			<point x="10" y="357" type="line"/>
			<point x="11" y="350" type="line"/>
			<point x="48" y="350" type="line"/>
			<point x="47" y="218"/>
			<point x="41" y="82"/>
			<point x="27" y="44" type="curve"/>
			<point x="62" y="27"/>
			<point x="85" y="12"/>
		</contour>
		<contour>
			<point x="335" y="-10" type="curve"/>
			<point x="414" y="48" type="line"/>
			<point x="414" y="55" type="line"/>
			<point x="387" y="72"/>
			<point x="369" y="90"/>
			<point x="359" y="115" type="curve"/>
			<point x="358" y="240"/>
			<point x="365" y="349"/>
			<point x="382" y="419" type="curve"/>
			<point x="292" y="456" type="line"/>
			<point x="236" y="404" type="line"/>
			<point x="236" y="396" type="line"/>
			<point x="259" y="379"/>
			<point x="289" y="355"/>
			<point x="290" y="334" type="curve" smooth="yes"/>
			<point x="293" y="264"/>
			<point x="279" y="151"/>
			<point x="269" y="70" type="curve"/>
			<point x="296" y="43"/>
			<point x="318" y="17"/>
		</contour>
		<contour>
			<point x="249" y="500" type="line"/>
			<point x="381" y="607" type="line"/>
			<point x="369" y="651" type="line"/>
			<point x="363" y="651" type="line"/>
			<point x="244" y="523" type="line"/>
		</contour>
	</outline>
</glyph>
<glyph name="f_l" format="2">
	<advance width="422"/>
	<outline>
		<contour>
			<point x="113" y="-10" type="curve"/>
			<point x="113" y="-10" type="line"/>
			<point x="172" y="74" type="line"/>
			<point x="119" y="97" type="line"/>
			<point x="119" y="137"/>
			<point x="120" y="242"/>
			<point x="122" y="350" type="curve"/>
			<point x="222" y="350" type="line"/>
			<point x="222" y="430" type="line"/>
			<point x="123" y="430" type="line"/>
			<point x="126" y="530"/>
			<point x="129" y="618"/>
			<point x="132" y="640" type="curve"/>
			<point x="161" y="630"/>
			<point x="203" y="608"/>
			<point x="228" y="595" type="curve"/>
			<point x="299" y="656" type="line"/>
			<point x="261" y="675"/>
			<point x="183" y="705"/>
			<point x="148" y="711" type="curve"/>
			<point x="32" y="636" type="line"/>
			<point x="41" y="627"/>
			<point x="46" y="540"/>
			<point x="48" y="435" type="curve"/>
			<point x="10" y="357" type="line"/>
			<point x="11" y="350" type="line"/>
			<point x="48" y="350" type="line"/>
			<point x="47" y="218"/>
			<point x="41" y="82"/>
			<point x="27" y="44" type="curve"/>
			<point x="62" y="27"/>
			<point x="85" y="12"/>
		</contour>
		<contour>
			<point x="326" y="-18" type="curve"/>
			<point x="326" y="-18" type="line"/>
			<point x="407" y="44" type="line"/>
			<point x="407" y="49" type="line"/>
			<point x="378" y="64"/>
			<point x="355" y="96"/>
			<point x="346" y="117" type="curve"/>
			<point x="346" y="237"/>
			<point x="350" y="565"/>
			<point x="370" y="700" type="curve"/>
			<point x="363" y="707" type="line"/>
			<point x="258" y="633" type="line"/>
			<point x="267" y="535"/>
			<point x="275" y="246"/>
			<point x="266" y="52" type="curve"/>
			<point x="286" y="38"/>
			<point x="306" y="10"/>
		</contour>
	</outline>
</glyph>
<glyph name="f_t" format="2">
	<advance width="488"/>
	<outline>
		<contour>
			<point x="113" y="-10" type="curve"/>
			<point x="113" y="-10" type="line"/>
			<point x="172" y="74" type="line"/>
			<point x="119" y="97" type="line"/>
			<point x="119" y="139"/>
			<point x="120" y="249"/>
			<point x="122" y="360" type="curve"/>
			<point x="277" y="360" type="line"/>
			<point x="280" y="290"/>
			<point x="281" y="137"/>
			<point x="271" y="56" type="curve"/>
			<point x="293" y="30"/>
			<point x="315" y="10"/>
			<point x="357" y="-10" type="curve"/>
			<point x="385" y="9"/>
			<point x="412" y="27"/>
			<point x="440" y="42" type="curve"/>
			<point x="440" y="48" type="line"/>
			<point x="395" y="67"/>
			<point x="353" y="111"/>
			<point x="353" y="127" type="curve"/>
			<point x="347" y="203"/>
			<point x="351" y="306"/>
			<point x="354" y="361" type="curve"/>
			<point x="399" y="362"/>
			<point x="443" y="362"/>
			<point x="488" y="357" type="curve"/>
			<point x="488" y="430" type="line"/>
			<point x="357" y="430" type="line"/>
			<point x="359" y="484"/>
			<point x="361" y="528"/>
			<point x="374" y="592" type="curve"/>
			<point x="358" y="596" type="line"/>
			<point x="291" y="462"/>
			<point x="253" y="430"/>
			<point x="200" y="430" type="curve"/>
			<point x="124" y="430" type="line"/>
			<point x="126" y="526"/>
			<point x="129" y="611"/>
			<point x="132" y="632" type="curve"/>
			<point x="161" y="622"/>
			<point x="196" y="610"/>
			<point x="221" y="597" type="curve"/>
			<point x="251" y="674" type="line"/>
			<point x="213" y="688"/>
			<point x="183" y="701"/>
			<point x="148" y="711" type="curve"/>
			<point x="32" y="636" type="line"/>
			<point x="41" y="627"/>
			<point x="46" y="541"/>
			<point x="48" y="437" type="curve"/>
			<point x="10" y="367" type="line"/>
			<point x="11" y="360" type="line"/>
			<point x="48" y="360" type="line"/>
			<point x="48" y="225"/>
			<point x="41" y="83"/>
			<point x="27" y="44" type="curve"/>
			<point x="62" y="27"/>
			<point x="85" y="12"/>
		</contour>
	</outline>
</glyph>
<glyph name="longs_longs" format="2">
	<advance width="373"/>
	<outline>
		<contour>
			<point x="113" y="-10" type="line"/>
			<point x="183" y="60" type="line"/>
			<point x="183" y="65" type="line"/>
			<point x="135" y="98" type="line"/>
			<point x="129" y="178"/>
			<point x="135" y="569"/>
			<point x="135" y="633" type="curve"/>
			<point x="214" y="599" type="line"/>
			<point x="217" y="601" type="line"/>
			<point x="248" y="673" type="line"/>
			<point x="215" y="688"/>
			<point x="173" y="697"/>
			<point x="140" y="710" type="curve"/>
			<point x="47" y="641" type="line"/>
			<point x="60" y="511"/>
			<point x="58" y="185"/>
			<point x="45" y="53" type="curve"/>
		</contour>
		<contour>
			<point x="319" y="-10" type="line"/>
			<point x="382" y="60" type="line"/>
			<point x="382" y="65" type="line"/>
			<point x="351" y="80"/>
			<point x="351" y="85"/>
			<point x="341" y="93" type="curve"/>
			<point x="335" y="183"/>
			<point x="341" y="569"/>
			<point x="341" y="633" type="curve"/>
			<point x="394" y="607" type="line"/>
			<point x="397" y="609" type="line"/>
			<point x="428" y="681" type="line"/>
			<point x="395" y="696"/>
			<point x="379" y="697"/>
			<point x="346" y="710" type="curve"/>
			<point x="253" y="641" type="line"/>
			<point x="266" y="511"/>
			<point x="264" y="185"/>
			<point x="251" y="53" type="curve"/>
		</contour>
	</outline>
</glyph>
<glyph name="longs_t" format="2">
	<advance width="461"/>
	<outline>
		<contour>
			<point x="330" y="-10" type="curve"/>
			<point x="330" y="-10" type="line"/>
			<point x="413" y="52" type="line"/>
			<point x="413" y="58" type="line"/>
			<point x="368" y="77"/>
			<point x="326" y="111"/>
			<point x="326" y="127" type="curve"/>
			<point x="320" y="209"/>
			<point x="325" y="313"/>
			<point x="327" y="370" type="curve"/>
			<point x="372" y="370"/>
			<point x="415" y="367"/>
			<point x="460" y="362" type="curve"/>
			<point x="461" y="445" type="line"/>
			<point x="329" y="445" type="line"/>
			<point x="331" y="493"/>
			<point x="335" y="534"/>
			<point x="347" y="592" type="curve"/>
			<point x="331" y="596" type="line"/>
			<point x="291" y="520"/>
			<point x="243" y="450"/>
			<point x="204" y="394" type="curve"/>
			<point x="205" y="385" type="line"/>
			<point x="219" y="376"/>
			<point x="235" y="359"/>
			<point x="250" y="340" type="curve"/>
			<point x="253" y="270"/>
			<point x="254" y="137"/>
			<point x="244" y="56" type="curve"/>
			<point x="266" y="30"/>
			<point x="288" y="10"/>
		</contour>
		<contour>
			<point x="45" y="53" type="curve"/>
			<point x="113" y="-10" type="line"/>
			<point x="183" y="60" type="line"/>
			<point x="183" y="65" type="line"/>
			<point x="135" y="98" type="line"/>
			<point x="129" y="178"/>
			<point x="135" y="569"/>
			<point x="135" y="633" type="curve"/>
			<point x="214" y="599" type="line"/>
			<point x="217" y="601" type="line"/>
			<point x="248" y="673" type="line"/>
			<point x="215" y="688"/>
			<point x="173" y="697"/>
			<point x="140" y="710" type="curve"/>
			<point x="47" y="641" type="line"/>
			<point x="60" y="511"/>
			<point x="58" y="185"/>
		</contour>
	</outline>
</glyph>
<glyph name="o_e" format="2">
	<advance width="591"/>
	<outline>
		<contour>
			<point x="289" y="42" type="line"/>
			<point x="481" y="-21" type="line"/>
			<point x="527" y="52" type="line"/>
			<point x="524" y="60" type="line"/>
			<point x="443" y="70"/>
			<point x="389" y="82"/>
			<point x="342" y="100" type="curve"/>
			<point x="340" y="102"/>
			<point x="339" y="117"/>
			<point x="339" y="141" type="curve"/>
			<point x="531" y="249" type="line"/>
			<point x="583" y="309" type="line"/>
			<point x="586" y="321" type="line"/>
			<point x="421" y="479" type="line"/>
			<point x="300" y="397" type="line"/>
			<point x="256" y="419"/>
			<point x="211" y="440"/>
			<point x="162" y="465" type="curve"/>
			<point x="35" y="377" type="line"/>
			<point x="42" y="289"/>
			<point x="38" y="189"/>
			<point x="30" y="72" type="curve"/>
			<point x="80" y="50"/>
			<point x="131" y="22"/>
			<point x="179" y="-10" type="curve"/>
		</contour>
		<contour>
			<point x="268" y="348" type="line"/>
			<point x="260" y="70" type="line"/>
			<point x="190" y="82"/>
			<point x="139" y="101"/>
			<point x="106" y="124" type="curve"/>
			<point x="116" y="378" type="line"/>
			<point x="170" y="373"/>
			<point x="221" y="361"/>
			<point x="268" y="349" type="curve"/>
		</contour>
		<contour>
			<point x="512" y="271" type="line"/>
			<point x="340" y="181" type="line"/>
			<point x="343" y="257"/>
			<point x="352" y="364"/>
			<point x="363" y="398" type="curve"/>
		</contour>
	</outline>
</glyph>
<glyph name="t_z" format="2">
	<advance width="420"/>
	<outline>
		<contour>
			<point x="345" y="-110" type="curve"/>
			<point x="370" y="-112" type="line"/>
			<point x="395" y="-10"/>
			<point x="394" y="35"/>
			<point x="376" y="150" type="curve"/>
			<point x="251" y="206" type="line"/>
			<point x="283" y="273"/>
			<point x="350" y="347"/>
			<point x="415" y="442" type="curve"/>
			<point x="409" y="450" type="line"/>
			<point x="162" y="456" type="line"/>
			<point x="170" y="519"/>
			<point x="178" y="573"/>
			<point x="183" y="599" type="curve"/>
			<point x="166" y="604" type="line"/>
			<point x="47" y="520" type="line"/>
			<point x="60" y="390"/>
			<point x="58" y="185"/>
			<point x="45" y="53" type="curve"/>
			<point x="113" y="-10" type="line"/>
			<point x="183" y="60" type="line"/>
			<point x="183" y="65" type="line"/>
			<point x="135" y="98" type="line"/>
			<point x="134" y="106"/>
			<point x="134" y="118"/>
			<point x="135" y="133" type="curve"/>
			<point x="158" y="141"/>
			<point x="179" y="146"/>
			<point x="209" y="145" type="curve"/>
			<point x="314" y="108"/>
			<point x="345" y="12"/>
		</contour>
		<contour>
			<point x="166" y="180" type="curve"/>
			<point x="136" y="169" type="line"/>
			<point x="140" y="234"/>
			<point x="148" y="328"/>
			<point x="158" y="413" type="curve"/>
			<point x="314" y="390" type="line"/>
			<point x="274" y="323"/>
			<point x="231" y="247"/>
		</contour>
	</outline>
</glyph>
<glyph name="y.ss01" format="2">
	<advance width="455"/>
	<outline>
		<contour>
			<point x="286" y="-154" type="curve"/>
			<point x="286" y="-154" type="line"/>
			<point x="333" y="-114"/>
			<point x="386" y="-79"/>
			<point x="420" y="-60" type="curve"/>
			<point x="400" y="36"/>
			<point x="397" y="299"/>
			<point x="414" y="414" type="curve"/>
			<point x="356" y="478" type="line"/>
			<point x="274" y="411" type="line"/>
			<point x="274" y="407" type="line"/>
			<point x="289" y="394"/>
			<point x="315" y="372"/>
			<point x="324" y="363" type="curve"/>
			<point x="327" y="309"/>
			<point x="321" y="185"/>
			<point x="311" y="118" type="curve"/>
			<point x="281" y="101"/>
			<point x="239" y="83"/>
			<point x="209" y="75" type="curve"/>
			<point x="180" y="84"/>
			<point x="150" y="111"/>
			<point x="137" y="131" type="curve"/>
			<point x="144" y="363" type="line" smooth="yes"/>
			<point x="144" y="378"/>
			<point x="160" y="384"/>
			<point x="166" y="393" type="curve"/>
			<point x="97" y="468" type="line"/>
			<point x="15" y="402" type="line"/>
			<point x="15" y="399" type="line"/>
			<point x="35" y="381"/>
			<point x="64" y="363"/>
			<point x="71" y="352" type="curve"/>
			<point x="72" y="255"/>
			<point x="63" y="143"/>
			<point x="51" y="75" type="curve"/>
			<point x="83" y="55"/>
			<point x="126" y="26"/>
			<point x="149" y="3" type="curve"/>
			<point x="93" y="-79" type="line"/>
			<point x="154" y="-88"/>
			<point x="219" y="-121"/>
		</contour>
		<contour>
			<point x="335" y="-79" type="curve"/>
			<point x="335" y="-79" type="line"/>
			<point x="304" y="-79"/>
			<point x="230" y="-53"/>
			<point x="183" y="-27" type="curve"/>
			<point x="179" y="-21"/>
			<point x="176" y="-16"/>
			<point x="174" y="-10" type="curve"/>
			<point x="217" y="31"/>
			<point x="260" y="59"/>
			<point x="297" y="79" type="curve"/>
			<point x="306" y="79"/>
			<point x="313" y="77"/>
			<point x="324" y="73" type="curve"/>
			<point x="339" y="22"/>
			<point x="339" y="-30"/>
		</contour>
	</outline>
</glyph>
